Recursive-Sans Linear ExtraBold.ufo
<glyph name="quotesingle" format="2">
  <advance width="350"/>
  <unicode hex="0027"/>
  <outline>
    <contour>
      <point x="242" y="437" type="curve"/>
      <point x="265" y="737" type="line" smooth="yes"/>
      <point x="266" y="746"/>
      <point x="261" y="750"/>
      <point x="255" y="750" type="curve" smooth="yes"/>
      <point x="204" y="750"/>
      <point x="148" y="750"/>
      <point x="86" y="750" type="curve"/>
      <point x="89" y="714"/>
      <point x="91" y="683"/>
      <point x="94" y="648" type="curve" smooth="yes"/>
      <point x="109" y="448" type="line" smooth="yes"/>
      <point x="110" y="441"/>
      <point x="115" y="437"/>
      <point x="121" y="437" type="curve" smooth="yes"/>
      <point x="162" y="437"/>
      <point x="201" y="437"/>
    </contour>
  </outline>
</glyph>
<glyph name="asterisk" format="2">
  <advance width="600"/>
  <unicode hex="002A"/>
  <outline>
    <contour>
      <point x="360" y="768" type="curve" smooth="yes"/>
      <point x="317" y="768"/>
      <point x="273" y="768"/>
      <point x="230" y="768" type="curve"/>
      <point x="237" y="729"/>
      <point x="244" y="702"/>
      <point x="252" y="671" type="curve" smooth="yes"/>
      <point x="259" y="644"/>
      <point x="263" y="621"/>
      <point x="272" y="599" type="curve"/>
      <point x="254" y="588" type="line"/>
      <point x="212" y="634"/>
      <point x="188" y="655"/>
      <point x="129" y="704" type="curve" smooth="yes"/>
      <point x="124" y="708"/>
      <point x="119" y="707"/>
      <point x="114" y="700" type="curve" smooth="yes"/>
      <point x="93" y="663"/>
      <point x="71" y="627"/>
      <point x="50" y="590" type="curve"/>
      <point x="122" y="563"/>
      <point x="164" y="552"/>
      <point x="229" y="539" type="curve"/>
      <point x="229" y="519" type="line"/>
      <point x="168" y="507"/>
      <point x="129" y="499"/>
      <point x="60" y="475" type="curve" smooth="yes"/>
      <point x="54" y="473"/>
      <point x="52" y="468"/>
      <point x="56" y="460" type="curve" smooth="yes"/>
      <point x="77" y="423"/>
      <point x="99" y="387"/>
      <point x="120" y="350" type="curve"/>
      <point x="179" y="396"/>
      <point x="209" y="423"/>
      <point x="255" y="472" type="curve"/>
      <point x="273" y="461" type="line"/>
      <point x="254" y="399"/>
      <point x="243" y="366"/>
      <point x="231" y="300" type="curve" smooth="yes"/>
      <point x="230" y="294"/>
      <point x="233" y="290"/>
      <point x="239" y="290" type="curve" smooth="yes"/>
      <point x="282" y="290"/>
      <point x="326" y="290"/>
      <point x="369" y="290" type="curve"/>
      <point x="362" y="329"/>
      <point x="357" y="348"/>
      <point x="348" y="387" type="curve" smooth="yes"/>
      <point x="342" y="413"/>
      <point x="337" y="434"/>
      <point x="326" y="461" type="curve"/>
      <point x="344" y="472" type="line"/>
      <point x="388" y="425"/>
      <point x="414" y="402"/>
      <point x="469" y="357" type="curve" smooth="yes"/>
      <point x="475" y="352"/>
      <point x="481" y="353"/>
      <point x="485" y="360" type="curve" smooth="yes"/>
      <point x="506" y="397"/>
      <point x="527" y="434"/>
      <point x="548" y="471" type="curve"/>
      <point x="471" y="497"/>
      <point x="436" y="505"/>
      <point x="372" y="519" type="curve"/>
      <point x="372" y="539" type="line"/>
      <point x="422" y="549"/>
      <point x="466" y="559"/>
      <point x="538" y="584" type="curve" smooth="yes"/>
      <point x="545" y="586"/>
      <point x="547" y="592"/>
      <point x="543" y="599" type="curve" smooth="yes"/>
      <point x="522" y="636"/>
      <point x="500" y="672"/>
      <point x="479" y="709" type="curve"/>
      <point x="408" y="653"/>
      <point x="384" y="633"/>
      <point x="344" y="588" type="curve"/>
      <point x="326" y="599" type="line"/>
      <point x="347" y="650"/>
      <point x="356" y="679"/>
      <point x="368" y="758" type="curve" smooth="yes"/>
      <point x="369" y="764"/>
      <point x="366" y="768"/>
    </contour>
  </outline>
</glyph>
<glyph name="O" format="2">
  <advance width="650"/>
  <unicode hex="004F"/>
  <anchor x="325" y="711" name="top"/>
  <anchor x="325" y="-1" name="bottom"/>
  <anchor x="476" y="677" name="horn"/>
  <anchor x="323" y="730" name="hook"/>
  <anchor x="292" y="714" name="tildeviet"/>
  <anchor x="550" y="88" name="ogonek"/>
  <outline>
    <contour>
      <point x="325" y="720" type="curve" smooth="yes"/>
      <point x="184" y="720"/>
      <point x="55" y="623"/>
      <point x="55" y="438" type="curve" smooth="yes"/>
      <point x="55" y="250" type="line" smooth="yes"/>
      <point x="55" y="79"/>
      <point x="172" y="-20"/>
      <point x="325" y="-20" type="curve" smooth="yes"/>
      <point x="482" y="-20"/>
      <point x="595" y="79"/>
      <point x="595" y="250" type="curve" smooth="yes"/>
      <point x="595" y="438" type="line" smooth="yes"/>
      <point x="595" y="623"/>
      <point x="476" y="720"/>
    </contour>
    <contour>
      <point x="205" y="262" type="curve" smooth="yes"/>
      <point x="205" y="450" type="line" smooth="yes"/>
      <point x="205" y="533"/>
      <point x="245" y="585"/>
      <point x="327" y="585" type="curve" smooth="yes"/>
      <point x="368" y="585"/>
      <point x="395" y="575"/>
      <point x="414" y="557" type="curve" smooth="yes"/>
      <point x="436" y="537"/>
      <point x="445" y="510"/>
      <point x="445" y="450" type="curve" smooth="yes"/>
      <point x="445" y="262" type="line" smooth="yes"/>
      <point x="445" y="166"/>
      <point x="397" y="117"/>
      <point x="330" y="117" type="curve" smooth="yes"/>
      <point x="293" y="117"/>
      <point x="262" y="127"/>
      <point x="245" y="141" type="curve" smooth="yes"/>
      <point x="228" y="155"/>
      <point x="205" y="185"/>
    </contour>
  </outline>
</glyph>
<glyph name="V" format="2">
  <advance width="650"/>
  <unicode hex="0056"/>
  <outline>
    <contour>
      <point x="178" y="700" type="curve" smooth="yes"/>
      <point x="134" y="700"/>
      <point x="83" y="700"/>
      <point x="35" y="700" type="curve"/>
      <point x="46" y="647"/>
      <point x="60" y="596"/>
      <point x="71" y="547" type="curve" smooth="yes"/>
      <point x="120" y="335"/>
      <point x="164" y="152"/>
      <point x="194" y="24" type="curve" smooth="yes"/>
      <point x="199" y="4"/>
      <point x="202" y="0"/>
      <point x="217" y="0" type="curve" smooth="yes"/>
      <point x="280" y="0"/>
      <point x="366" y="0"/>
      <point x="450" y="0" type="curve"/>
      <point x="475" y="104"/>
      <point x="594" y="601"/>
      <point x="615" y="687" type="curve" smooth="yes"/>
      <point x="617" y="697"/>
      <point x="611" y="700"/>
      <point x="607" y="700" type="curve" smooth="yes"/>
      <point x="560" y="700"/>
      <point x="512" y="700"/>
      <point x="465" y="700" type="curve"/>
      <point x="383" y="349"/>
      <point x="353" y="223"/>
      <point x="330" y="95" type="curve"/>
      <point x="365" y="120" type="line"/>
      <point x="285" y="120" type="line"/>
      <point x="319" y="95" type="line"/>
      <point x="296" y="223"/>
      <point x="269" y="349"/>
      <point x="198" y="672" type="curve" smooth="yes"/>
      <point x="192" y="697"/>
      <point x="188" y="700"/>
    </contour>
  </outline>
</glyph>
<glyph name="m" format="2">
  <advance width="850"/>
  <unicode hex="006D"/>
  <anchor x="423" y="0" name="bottom"/>
  <outline>
    <contour>
      <point x="780" y="0" type="curve"/>
      <point x="780" y="33"/>
      <point x="780" y="67"/>
      <point x="780" y="100" type="curve" smooth="yes"/>
      <point x="780" y="218"/>
      <point x="780" y="336"/>
      <point x="780" y="414" type="curve" smooth="yes"/>
      <point x="780" y="506"/>
      <point x="720" y="552"/>
      <point x="657" y="552" type="curve" smooth="yes"/>
      <point x="593" y="552"/>
      <point x="553" y="521"/>
      <point x="526" y="464" type="curve"/>
      <point x="471" y="464" type="line"/>
      <point x="494" y="315" type="line"/>
      <point x="520" y="375"/>
      <point x="552" y="404"/>
      <point x="586" y="404" type="curve" smooth="yes"/>
      <point x="608" y="404"/>
      <point x="620" y="395"/>
      <point x="620" y="363" type="curve" smooth="yes"/>
      <point x="620" y="253"/>
      <point x="620" y="132"/>
      <point x="620" y="11" type="curve" smooth="yes"/>
      <point x="620" y="4"/>
      <point x="624" y="0"/>
      <point x="631" y="0" type="curve"/>
      <point x="666" y="0"/>
      <point x="740" y="0"/>
    </contour>
    <contour>
      <point x="505" y="0" type="curve"/>
      <point x="505" y="241"/>
      <point x="505" y="377"/>
      <point x="505" y="421" type="curve" smooth="yes"/>
      <point x="505" y="515"/>
      <point x="445" y="552"/>
      <point x="375" y="552" type="curve" smooth="yes"/>
      <point x="321" y="552"/>
      <point x="274" y="520"/>
      <point x="240" y="464" type="curve"/>
      <point x="187" y="464" type="line"/>
      <point x="216" y="313" type="line"/>
      <point x="248" y="375"/>
      <point x="283" y="404"/>
      <point x="318" y="404" type="curve" smooth="yes"/>
      <point x="334" y="404"/>
      <point x="345" y="397"/>
      <point x="345" y="363" type="curve" smooth="yes"/>
      <point x="345" y="253"/>
      <point x="345" y="132"/>
      <point x="345" y="11" type="curve" smooth="yes"/>
      <point x="345" y="4"/>
      <point x="349" y="0"/>
      <point x="356" y="0" type="curve"/>
      <point x="385" y="0"/>
      <point x="470" y="0"/>
    </contour>
    <contour>
      <point x="230" y="0" type="curve"/>
      <point x="230" y="139"/>
      <point x="230" y="279"/>
      <point x="230" y="418" type="curve"/>
      <point x="230" y="419"/>
      <point x="192" y="540"/>
      <point x="191" y="540" type="curve"/>
      <point x="160" y="540"/>
      <point x="101" y="540"/>
      <point x="70" y="540" type="curve"/>
      <point x="70" y="507"/>
      <point x="70" y="473"/>
      <point x="70" y="440" type="curve" smooth="yes"/>
      <point x="70" y="297"/>
      <point x="70" y="154"/>
      <point x="70" y="11" type="curve" smooth="yes"/>
      <point x="70" y="4"/>
      <point x="74" y="0"/>
      <point x="81" y="0" type="curve"/>
      <point x="122" y="0"/>
      <point x="189" y="0"/>
    </contour>
  </outline>
</glyph>
<glyph name="currency" format="2">
  <advance width="600"/>
  <unicode hex="00A4"/>
  <outline>
    <contour>
      <point x="258" y="424" type="curve"/>
      <point x="227" y="455"/>
      <point x="191" y="491"/>
      <point x="159" y="523" type="curve" smooth="yes"/>
      <point x="157" y="525"/>
      <point x="155" y="526"/>
      <point x="153" y="526" type="curve" smooth="yes"/>
      <point x="151" y="526"/>
      <point x="149" y="525"/>
      <point x="147" y="523" type="curve" smooth="yes"/>
      <point x="120" y="496"/>
      <point x="91" y="467"/>
      <point x="70" y="446" type="curve"/>
      <point x="101" y="415"/>
      <point x="138" y="378"/>
      <point x="169" y="347" type="curve" smooth="yes"/>
      <point x="173" y="343"/>
      <point x="177" y="343"/>
      <point x="181" y="347" type="curve" smooth="yes"/>
      <point x="205" y="371"/>
      <point x="236" y="402"/>
    </contour>
    <contour>
      <point x="340" y="424" type="curve"/>
      <point x="347" y="417"/>
      <point x="409" y="355"/>
      <point x="417" y="347" type="curve" smooth="yes"/>
      <point x="421" y="343"/>
      <point x="425" y="343"/>
      <point x="429" y="347" type="curve" smooth="yes"/>
      <point x="460" y="378"/>
      <point x="497" y="415"/>
      <point x="528" y="446" type="curve"/>
      <point x="502" y="472"/>
      <point x="477" y="497"/>
      <point x="451" y="523" type="curve" smooth="yes"/>
      <point x="449" y="525"/>
      <point x="447" y="526"/>
      <point x="445" y="526" type="curve" smooth="yes"/>
      <point x="443" y="526"/>
      <point x="441" y="525"/>
      <point x="439" y="523" type="curve" smooth="yes"/>
      <point x="407" y="491"/>
      <point x="371" y="455"/>
    </contour>
    <contour>
      <point x="340" y="174" type="curve"/>
      <point x="371" y="143"/>
      <point x="407" y="107"/>
      <point x="439" y="75" type="curve" smooth="yes"/>
      <point x="441" y="73"/>
      <point x="443" y="72"/>
      <point x="445" y="72" type="curve" smooth="yes"/>
      <point x="447" y="72"/>
      <point x="449" y="73"/>
      <point x="451" y="75" type="curve" smooth="yes"/>
      <point x="478" y="102"/>
      <point x="507" y="131"/>
      <point x="528" y="152" type="curve"/>
      <point x="497" y="183"/>
      <point x="460" y="220"/>
      <point x="429" y="251" type="curve" smooth="yes"/>
      <point x="425" y="255"/>
      <point x="421" y="255"/>
      <point x="417" y="251" type="curve" smooth="yes"/>
      <point x="393" y="227"/>
      <point x="362" y="196"/>
    </contour>
    <contour>
      <point x="258" y="174" type="curve"/>
      <point x="251" y="181"/>
      <point x="189" y="243"/>
      <point x="181" y="251" type="curve" smooth="yes"/>
      <point x="177" y="255"/>
      <point x="173" y="255"/>
      <point x="169" y="251" type="curve" smooth="yes"/>
      <point x="138" y="220"/>
      <point x="101" y="183"/>
      <point x="70" y="152" type="curve"/>
      <point x="96" y="126"/>
      <point x="121" y="101"/>
      <point x="147" y="75" type="curve" smooth="yes"/>
      <point x="149" y="73"/>
      <point x="151" y="72"/>
      <point x="153" y="72" type="curve" smooth="yes"/>
      <point x="155" y="72"/>
      <point x="157" y="73"/>
      <point x="159" y="75" type="curve" smooth="yes"/>
      <point x="191" y="107"/>
      <point x="227" y="143"/>
    </contour>
    <contour>
      <point x="119" y="304" type="curve" smooth="yes"/>
      <point x="119" y="293" type="line" smooth="yes"/>
      <point x="119" y="196"/>
      <point x="193" y="125"/>
      <point x="300" y="125" type="curve" smooth="yes"/>
      <point x="407" y="125"/>
      <point x="481" y="196"/>
      <point x="481" y="293" type="curve" smooth="yes"/>
      <point x="481" y="303" type="line" smooth="yes"/>
      <point x="481" y="404"/>
      <point x="407" y="476"/>
      <point x="300" y="476" type="curve" smooth="yes"/>
      <point x="193" y="476"/>
      <point x="119" y="404"/>
    </contour>
    <contour>
      <point x="235" y="298" type="curve" smooth="yes"/>
      <point x="235" y="307" type="line" smooth="yes"/>
      <point x="235" y="349"/>
      <point x="253" y="369"/>
      <point x="300" y="369" type="curve" smooth="yes"/>
      <point x="325" y="369"/>
      <point x="341" y="364"/>
      <point x="351" y="354" type="curve"/>
      <point x="361" y="344"/>
      <point x="365" y="330"/>
      <point x="365" y="307" type="curve" smooth="yes"/>
      <point x="365" y="298" type="line" smooth="yes"/>
      <point x="365" y="253"/>
      <point x="347" y="232"/>
      <point x="300" y="232" type="curve" smooth="yes"/>
      <point x="277" y="232"/>
      <point x="262" y="237"/>
      <point x="251" y="245" type="curve"/>
      <point x="240" y="255"/>
      <point x="235" y="270"/>
    </contour>
  </outline>
</glyph>
<glyph name="ordfeminine" format="2">
  <advance width="600"/>
  <unicode hex="00AA"/>
  <outline>
    <contour>
      <point x="220" y="290" type="curve" smooth="yes"/>
      <point x="275" y="290"/>
      <point x="320" y="323"/>
      <point x="336" y="374" type="curve"/>
      <point x="375" y="374" type="line"/>
      <point x="361" y="475" type="line"/>
      <point x="332" y="436"/>
      <point x="299" y="411"/>
      <point x="267" y="411" type="curve" smooth="yes"/>
      <point x="250" y="411"/>
      <point x="237" y="415"/>
      <point x="228" y="425" type="curve" smooth="yes"/>
      <point x="219" y="434"/>
      <point x="214" y="450"/>
      <point x="214" y="473" type="curve" smooth="yes"/>
      <point x="214" y="577" type="line" smooth="yes"/>
      <point x="214" y="617"/>
      <point x="233" y="639"/>
      <point x="267" y="639" type="curve" smooth="yes"/>
      <point x="301" y="639"/>
      <point x="332" y="624"/>
      <point x="362" y="598" type="curve"/>
      <point x="367" y="696" type="line"/>
      <point x="332" y="696" type="line"/>
      <point x="313" y="735"/>
      <point x="270" y="760"/>
      <point x="220" y="760" type="curve" smooth="yes"/>
      <point x="137" y="760"/>
      <point x="84" y="701"/>
      <point x="84" y="598" type="curve" smooth="yes"/>
      <point x="84" y="452" type="line" smooth="yes"/>
      <point x="84" y="350"/>
      <point x="137" y="290"/>
    </contour>
    <contour>
      <point x="523" y="407" type="curve"/>
      <point x="503" y="407" type="line"/>
      <point x="501" y="407"/>
      <point x="498" y="407"/>
      <point x="496" y="407" type="curve" smooth="yes"/>
      <point x="486" y="407"/>
      <point x="481" y="413"/>
      <point x="481" y="425" type="curve" smooth="yes"/>
      <point x="481" y="530.3291139241"/>
      <point x="481" y="634"/>
      <point x="481" y="739" type="curve" smooth="yes"/>
      <point x="481" y="746"/>
      <point x="477" y="750"/>
      <point x="470" y="750" type="curve" smooth="yes"/>
      <point x="431" y="750"/>
      <point x="391.3333333333" y="750"/>
      <point x="352" y="750" type="curve"/>
      <point x="352" y="711"/>
      <point x="352" y="672"/>
      <point x="352" y="634" type="curve"/>
      <point x="352" y="558"/>
      <point x="352" y="483"/>
      <point x="352" y="408" type="curve" smooth="yes"/>
      <point x="352" y="351"/>
      <point x="388" y="298"/>
      <point x="473" y="298" type="curve" smooth="yes"/>
      <point x="485.3658536585" y="298"/>
      <point x="499" y="298"/>
      <point x="512" y="298" type="curve" smooth="yes"/>
      <point x="519" y="298"/>
      <point x="523" y="302"/>
      <point x="523" y="309" type="curve" smooth="yes"/>
      <point x="523" y="341"/>
      <point x="523" y="374.3333333333"/>
    </contour>
  </outline>
</glyph>
<glyph name="eogonek" format="2">
  <advance width="600"/>
  <unicode hex="0119"/>
  <outline>
    <contour>
      <point x="289" y="-128" type="curve" smooth="yes"/>
      <point x="289" y="-207"/>
      <point x="343" y="-250"/>
      <point x="428" y="-250" type="curve" smooth="yes"/>
      <point x="472" y="-250"/>
      <point x="510" y="-236"/>
      <point x="510" y="-215" type="curve" smooth="yes"/>
      <point x="510" y="-131"/>
      <point x="510" y="-114"/>
      <point x="510" y="-93" type="curve"/>
      <point x="490" y="-93" type="line"/>
      <point x="477" y="-101"/>
      <point x="462" y="-106"/>
      <point x="446" y="-106" type="curve" smooth="yes"/>
      <point x="421" y="-106"/>
      <point x="408" y="-96"/>
      <point x="408" y="-76" type="curve" smooth="yes"/>
      <point x="408" y="-46"/>
      <point x="430" y="-19"/>
      <point x="493" y="-5" type="curve" smooth="yes"/>
      <point x="510" y="-1"/>
      <point x="515" y="7"/>
      <point x="515" y="27" type="curve"/>
      <point x="499" y="37"/>
      <point x="481" y="46"/>
      <point x="457" y="42" type="curve" smooth="yes"/>
      <point x="369" y="29"/>
      <point x="289" y="-30"/>
    </contour>
    <component base="e"/>
  </outline>
</glyph>
<glyph name="hbar" format="2">
  <advance width="600"/>
  <unicode hex="0127"/>
  <outline>
    <contour>
      <point x="30" y="690" type="line"/>
      <point x="30" y="661"/>
      <point x="30" y="634"/>
      <point x="30" y="605" type="curve" smooth="yes"/>
      <point x="30" y="598"/>
      <point x="34" y="594"/>
      <point x="41" y="594" type="curve" smooth="yes"/>
      <point x="380" y="594" type="line"/>
      <point x="380" y="623"/>
      <point x="380" y="650"/>
      <point x="380" y="679" type="curve" smooth="yes"/>
      <point x="380" y="686"/>
      <point x="376" y="690"/>
      <point x="369" y="690" type="curve"/>
    </contour>
    <component base="h"/>
  </outline>
</glyph>
<glyph name="lcaron" format="2">
  <advance width="450"/>
  <unicode hex="013E"/>
  <outline>
    <contour>
      <point x="382" y="561" type="curve" smooth="yes"/>
      <point x="391" y="561"/>
      <point x="396" y="565"/>
      <point x="398" y="572" type="curve" smooth="yes"/>
      <point x="419" y="645"/>
      <point x="424" y="665"/>
      <point x="444" y="735" type="curve" smooth="yes"/>
      <point x="446" y="743"/>
      <point x="441" y="750"/>
      <point x="433" y="750" type="curve" smooth="yes"/>
      <point x="383" y="750"/>
      <point x="342" y="750"/>
      <point x="299" y="750" type="curve"/>
      <point x="299" y="670"/>
      <point x="299" y="639"/>
      <point x="299" y="561" type="curve"/>
      <point x="336" y="561"/>
      <point x="355" y="561"/>
    </contour>
    <component base="l.sans" xOffset="-25"/>
  </outline>
</glyph>
<glyph name="Ldot" format="2">
  <advance width="550"/>
  <unicode hex="013F"/>
  <outline>
    <contour>
      <point x="348" y="481" type="curve"/>
      <point x="348" y="332" type="line" smooth="yes"/>
      <point x="348" y="325"/>
      <point x="352" y="321"/>
      <point x="359" y="321" type="curve"/>
      <point x="412" y="321"/>
      <point x="465" y="321"/>
      <point x="518" y="321" type="curve"/>
      <point x="518" y="470" type="line" smooth="yes"/>
      <point x="518" y="477"/>
      <point x="514" y="481"/>
      <point x="507" y="481" type="curve"/>
      <point x="454" y="481"/>
      <point x="401" y="481"/>
    </contour>
    <component base="L"/>
  </outline>
</glyph>
<glyph name="ldot" format="2">
  <advance width="450"/>
  <unicode hex="0140"/>
  <outline>
    <contour>
      <point x="25" y="130" type="line"/>
      <point x="25" y="89"/>
      <point x="25" y="53"/>
      <point x="25" y="11" type="curve" smooth="yes"/>
      <point x="25" y="4"/>
      <point x="29" y="0"/>
      <point x="36" y="0" type="curve"/>
      <point x="355" y="0" type="line"/>
      <point x="355" y="42"/>
      <point x="355" y="78"/>
      <point x="355" y="119" type="curve" smooth="yes"/>
      <point x="355" y="126"/>
      <point x="351" y="130"/>
      <point x="344" y="130" type="curve"/>
    </contour>
    <contour>
      <point x="457" y="329" type="curve"/>
      <point x="457" y="460" type="line" smooth="yes"/>
      <point x="457" y="467"/>
      <point x="453" y="471"/>
      <point x="446" y="471" type="curve"/>
      <point x="400" y="471"/>
      <point x="373" y="471"/>
      <point x="327" y="471" type="curve"/>
      <point x="327" y="340" type="line" smooth="yes"/>
      <point x="327" y="333"/>
      <point x="331" y="329"/>
      <point x="338" y="329" type="curve"/>
      <point x="384" y="329"/>
      <point x="411" y="329"/>
    </contour>
    <contour>
      <point x="35" y="750" type="curve"/>
      <point x="35" y="710"/>
      <point x="35" y="671"/>
      <point x="35" y="631" type="curve" smooth="yes"/>
      <point x="35" y="624"/>
      <point x="39" y="620"/>
      <point x="46" y="620" type="curve" smooth="yes"/>
      <point x="60" y="620"/>
      <point x="98" y="620"/>
      <point x="114" y="620" type="curve"/>
      <point x="120" y="620" type="line"/>
      <point x="120" y="461"/>
      <point x="120" y="287"/>
      <point x="120" y="143" type="curve" smooth="yes"/>
      <point x="120" y="127"/>
      <point x="120" y="110"/>
      <point x="120" y="94" type="curve"/>
      <point x="106" y="65" type="line"/>
      <point x="270" y="65" type="line"/>
      <point x="270" y="289"/>
      <point x="270" y="515"/>
      <point x="270" y="739" type="curve"/>
      <point x="270" y="746"/>
      <point x="266" y="750"/>
      <point x="259" y="750" type="curve" smooth="yes"/>
      <point x="191" y="750"/>
      <point x="103" y="750"/>
    </contour>
  </outline>
</glyph>
<glyph name="Eng" format="2">
  <advance width="700"/>
  <unicode hex="014A"/>
  <outline>
    <contour>
      <point x="399" y="-100" type="curve" smooth="yes"/>
      <point x="362" y="-100"/>
      <point x="333" y="-94"/>
      <point x="296" y="-75" type="curve"/>
      <point x="276" y="-75" type="line"/>
      <point x="276" y="-120"/>
      <point x="276" y="-169"/>
      <point x="276" y="-214" type="curve"/>
      <point x="276" y="-217"/>
      <point x="277" y="-220"/>
      <point x="279" y="-222" type="curve" smooth="yes"/>
      <point x="293" y="-236"/>
      <point x="357" y="-250"/>
      <point x="422" y="-250" type="curve" smooth="yes"/>
      <point x="570" y="-250"/>
      <point x="625" y="-164"/>
      <point x="625" y="0" type="curve" smooth="yes"/>
      <point x="625" y="21"/>
      <point x="581" y="21"/>
      <point x="475" y="21" type="curve"/>
      <point x="475" y="-76"/>
      <point x="448" y="-100"/>
    </contour>
    <component base="N" xOffset="25"/>
  </outline>
</glyph>
<glyph name="eng" format="2">
  <advance width="600"/>
  <unicode hex="014B"/>
  <outline>
    <contour>
      <point x="296" y="-100" type="curve" smooth="yes"/>
      <point x="255" y="-100"/>
      <point x="220" y="-92"/>
      <point x="181" y="-75" type="curve"/>
      <point x="161" y="-75" type="line"/>
      <point x="161" y="-120"/>
      <point x="161" y="-166"/>
      <point x="161" y="-211" type="curve" smooth="yes"/>
      <point x="161" y="-214"/>
      <point x="162" y="-217"/>
      <point x="164" y="-219" type="curve" smooth="yes"/>
      <point x="178" y="-233"/>
      <point x="242" y="-250"/>
      <point x="316" y="-250" type="curve" smooth="yes"/>
      <point x="465" y="-250"/>
      <point x="540" y="-166"/>
      <point x="540" y="-6" type="curve"/>
      <point x="540" y="-4"/>
      <point x="540" y="-2"/>
      <point x="540" y="0" type="curve"/>
      <point x="390" y="15" type="line"/>
      <point x="390" y="-78"/>
      <point x="356" y="-100"/>
    </contour>
    <contour>
      <point x="398" y="552" type="curve" smooth="yes"/>
      <point x="332" y="552"/>
      <point x="277" y="512"/>
      <point x="240" y="454" type="curve"/>
      <point x="203" y="454" type="line"/>
      <point x="203" y="328" type="line"/>
      <point x="240" y="380"/>
      <point x="305" y="407"/>
      <point x="348" y="407" type="curve" smooth="yes"/>
      <point x="379" y="407"/>
      <point x="390" y="393"/>
      <point x="390" y="363" type="curve" smooth="yes"/>
      <point x="390" y="246"/>
      <point x="390" y="128"/>
      <point x="390" y="11" type="curve" smooth="yes"/>
      <point x="390" y="4"/>
      <point x="394" y="0"/>
      <point x="401" y="0" type="curve" smooth="yes"/>
      <point x="451" y="0"/>
      <point x="490" y="0"/>
      <point x="540" y="0" type="curve"/>
      <point x="540" y="33"/>
      <point x="540" y="66"/>
      <point x="540" y="99" type="curve" smooth="yes"/>
      <point x="540" y="199"/>
      <point x="540" y="297"/>
      <point x="540" y="394" type="curve" smooth="yes"/>
      <point x="540" y="493"/>
      <point x="484" y="552"/>
    </contour>
    <contour>
      <point x="209" y="540" type="curve" smooth="yes"/>
      <point x="164" y="540"/>
      <point x="125" y="540"/>
      <point x="70" y="540" type="curve"/>
      <point x="70" y="512"/>
      <point x="70" y="478"/>
      <point x="70" y="442" type="curve" smooth="yes"/>
      <point x="70" y="298"/>
      <point x="70" y="155"/>
      <point x="70" y="11" type="curve" smooth="yes"/>
      <point x="70" y="4"/>
      <point x="74" y="0"/>
      <point x="81" y="0" type="curve" smooth="yes"/>
      <point x="131" y="0"/>
      <point x="170" y="0"/>
      <point x="220" y="0" type="curve"/>
      <point x="220" y="176"/>
      <point x="220" y="353"/>
      <point x="220" y="529" type="curve" smooth="yes"/>
      <point x="220" y="536"/>
      <point x="216" y="540"/>
    </contour>
  </outline>
</glyph>
<glyph name="oe" format="2">
  <advance width="850"/>
  <unicode hex="0153"/>
  <outline>
    <contour>
      <point x="268" y="552" type="curve" smooth="yes"/>
      <point x="123" y="552"/>
      <point x="55" y="462"/>
      <point x="55" y="332" type="curve" smooth="yes"/>
      <point x="55" y="199" type="line" smooth="yes"/>
      <point x="55" y="70"/>
      <point x="121" y="-12"/>
      <point x="263" y="-12" type="curve" smooth="yes"/>
      <point x="339" y="-12"/>
      <point x="409" y="32"/>
      <point x="443" y="103" type="curve"/>
      <point x="408" y="103" type="line"/>
      <point x="443" y="32"/>
      <point x="520" y="-12"/>
      <point x="633" y="-12" type="curve"/>
      <point x="710" y="-12"/>
      <point x="752" y="3"/>
      <point x="771" y="14" type="curve" smooth="yes"/>
      <point x="776" y="17"/>
      <point x="777" y="21"/>
      <point x="777" y="24" type="curve" smooth="yes"/>
      <point x="777" y="64"/>
      <point x="777" y="105"/>
      <point x="777" y="145" type="curve"/>
      <point x="757" y="145" type="line"/>
      <point x="716" y="130"/>
      <point x="690" y="125"/>
      <point x="634" y="125" type="curve" smooth="yes"/>
      <point x="585" y="125"/>
      <point x="544" y="133"/>
      <point x="521" y="155" type="curve" smooth="yes"/>
      <point x="507" y="169"/>
      <point x="499" y="188"/>
      <point x="499" y="213" type="curve"/>
      <point x="499" y="340" type="line" smooth="yes"/>
      <point x="499" y="385"/>
      <point x="522" y="410"/>
      <point x="566" y="410" type="curve" smooth="yes"/>
      <point x="586" y="410"/>
      <point x="602" y="405"/>
      <point x="612" y="394" type="curve" smooth="yes"/>
      <point x="624" y="382"/>
      <point x="630" y="364"/>
      <point x="630" y="340" type="curve" smooth="yes"/>
      <point x="630" y="319" type="line"/>
      <point x="609" y="319"/>
      <point x="587" y="319"/>
      <point x="566" y="319" type="curve" smooth="yes"/>
      <point x="525" y="319"/>
      <point x="484" y="319"/>
      <point x="443" y="319" type="curve"/>
      <point x="443" y="229" type="line"/>
      <point x="486" y="229" type="line"/>
      <point x="581" y="229"/>
      <point x="675" y="229"/>
      <point x="770" y="229" type="curve" smooth="yes"/>
      <point x="776" y="229"/>
      <point x="780" y="233"/>
      <point x="780" y="239" type="curve" smooth="yes"/>
      <point x="780" y="340" type="line" smooth="yes"/>
      <point x="780" y="489"/>
      <point x="701" y="552"/>
      <point x="580" y="552" type="curve" smooth="yes"/>
      <point x="504" y="552"/>
      <point x="442" y="513"/>
      <point x="410" y="446" type="curve"/>
      <point x="442" y="446" type="line"/>
      <point x="410" y="510"/>
      <point x="347" y="552"/>
    </contour>
    <contour>
      <point x="205" y="199" type="curve" smooth="yes"/>
      <point x="205" y="337" type="line" smooth="yes"/>
      <point x="205" y="385"/>
      <point x="237" y="412"/>
      <point x="278" y="412" type="curve" smooth="yes"/>
      <point x="301" y="412"/>
      <point x="320" y="405"/>
      <point x="333" y="392" type="curve" smooth="yes"/>
      <point x="345" y="380"/>
      <point x="352" y="362"/>
      <point x="352" y="339" type="curve" smooth="yes"/>
      <point x="352" y="204" type="line" smooth="yes"/>
      <point x="352" y="154"/>
      <point x="321" y="128"/>
      <point x="278" y="128" type="curve" smooth="yes"/>
      <point x="254" y="128"/>
      <point x="236" y="135"/>
      <point x="223" y="147" type="curve" smooth="yes"/>
      <point x="211" y="159"/>
      <point x="205" y="177"/>
    </contour>
  </outline>
</glyph>
<glyph name="tbar" format="2">
  <advance width="500"/>
  <unicode hex="0167"/>
  <outline>
    <contour>
      <point x="40" y="340" type="line"/>
      <point x="40" y="306"/>
      <point x="40" y="275"/>
      <point x="40" y="241" type="curve" smooth="yes"/>
      <point x="40" y="234"/>
      <point x="44" y="230"/>
      <point x="51" y="230" type="curve" smooth="yes"/>
      <point x="440" y="230" type="line"/>
      <point x="440" y="264"/>
      <point x="440" y="295"/>
      <point x="440" y="329" type="curve" smooth="yes"/>
      <point x="440" y="335"/>
      <point x="435" y="340"/>
      <point x="429" y="340" type="curve" smooth="yes"/>
    </contour>
    <component base="t"/>
  </outline>
</glyph>
<glyph name="LJ" format="2">
  <advance width="850"/>
  <unicode hex="01C7"/>
  <outline>
    <contour>
      <point x="81" y="0" type="curve" smooth="yes"/>
      <point x="500" y="0" type="line"/>
      <point x="484" y="100"/>
      <point x="458" y="135"/>
      <point x="379" y="135" type="curve"/>
      <point x="230" y="135" type="line"/>
      <point x="230" y="317"/>
      <point x="230" y="507"/>
      <point x="230" y="689" type="curve"/>
      <point x="230" y="695"/>
      <point x="225" y="700"/>
      <point x="219" y="700" type="curve"/>
      <point x="169" y="700"/>
      <point x="120" y="700"/>
      <point x="70" y="700" type="curve"/>
      <point x="70" y="673"/>
      <point x="70" y="647"/>
      <point x="70" y="620" type="curve"/>
      <point x="70" y="417"/>
      <point x="70" y="214"/>
      <point x="70" y="11" type="curve" smooth="yes"/>
      <point x="70" y="5"/>
      <point x="75" y="0"/>
    </contour>
    <contour>
      <point x="360" y="205" type="curve"/>
      <point x="360" y="182"/>
      <point x="360" y="146"/>
      <point x="360" y="121" type="curve" smooth="yes"/>
      <point x="360" y="55"/>
      <point x="393" y="10"/>
      <point x="500" y="0" type="curve"/>
      <point x="500" y="51"/>
      <point x="500" y="144"/>
      <point x="500" y="194" type="curve" smooth="yes"/>
      <point x="500" y="200"/>
      <point x="495" y="205"/>
      <point x="489" y="205" type="curve" smooth="yes"/>
      <point x="443" y="205"/>
      <point x="406" y="205"/>
    </contour>
    <contour>
      <point x="524" y="-72" type="curve"/>
      <point x="564" y="-72"/>
      <point x="643" y="-72"/>
      <point x="683" y="-72" type="curve" smooth="yes"/>
      <point x="705" y="-72"/>
      <point x="712" y="-68"/>
      <point x="726" y="-50" type="curve" smooth="yes"/>
      <point x="765" y="2"/>
      <point x="790" y="70"/>
      <point x="790" y="208" type="curve" smooth="yes"/>
      <point x="790" y="393"/>
      <point x="790" y="541"/>
      <point x="790" y="689" type="curve" smooth="yes"/>
      <point x="790" y="696"/>
      <point x="786" y="700"/>
      <point x="779" y="700" type="curve" smooth="yes"/>
      <point x="711" y="700"/>
      <point x="556" y="700"/>
      <point x="512" y="700" type="curve"/>
      <point x="512" y="656"/>
      <point x="512" y="620"/>
      <point x="512" y="576" type="curve" smooth="yes"/>
      <point x="512" y="569"/>
      <point x="516" y="565"/>
      <point x="523" y="565" type="curve" smooth="yes"/>
      <point x="542" y="565"/>
      <point x="616" y="565"/>
      <point x="658" y="565" type="curve"/>
      <point x="611" y="590" type="line"/>
      <point x="652" y="544" type="line"/>
      <point x="630" y="592" type="line"/>
      <point x="630" y="456"/>
      <point x="630" y="271"/>
      <point x="630" y="207" type="curve" smooth="yes"/>
      <point x="630" y="60"/>
      <point x="600" y="1"/>
    </contour>
  </outline>
</glyph>
<glyph name="Lj" format="2">
  <advance width="850"/>
  <unicode hex="01C8"/>
  <outline>
    <contour>
      <point x="81" y="0" type="curve" smooth="yes"/>
      <point x="500" y="0" type="line"/>
      <point x="484" y="100"/>
      <point x="458" y="135"/>
      <point x="379" y="135" type="curve"/>
      <point x="230" y="135" type="line"/>
      <point x="230" y="317"/>
      <point x="230" y="507"/>
      <point x="230" y="689" type="curve"/>
      <point x="230" y="695"/>
      <point x="225" y="700"/>
      <point x="219" y="700" type="curve"/>
      <point x="169" y="700"/>
      <point x="120" y="700"/>
      <point x="70" y="700" type="curve"/>
      <point x="70" y="673"/>
      <point x="70" y="647"/>
      <point x="70" y="620" type="curve"/>
      <point x="70" y="417"/>
      <point x="70" y="214"/>
      <point x="70" y="11" type="curve" smooth="yes"/>
      <point x="70" y="5"/>
      <point x="75" y="0"/>
    </contour>
    <contour>
      <point x="360" y="205" type="curve"/>
      <point x="360" y="182"/>
      <point x="360" y="146"/>
      <point x="360" y="121" type="curve" smooth="yes"/>
      <point x="360" y="55"/>
      <point x="393" y="10"/>
      <point x="500" y="0" type="curve"/>
      <point x="500" y="51"/>
      <point x="500" y="144"/>
      <point x="500" y="194" type="curve" smooth="yes"/>
      <point x="500" y="200"/>
      <point x="495" y="205"/>
      <point x="489" y="205" type="curve" smooth="yes"/>
      <point x="443" y="205"/>
      <point x="406" y="205"/>
    </contour>
    <contour>
      <point x="764" y="540" type="curve"/>
      <point x="712" y="540"/>
      <point x="645" y="540"/>
      <point x="546" y="540" type="curve"/>
      <point x="546" y="496"/>
      <point x="546" y="453"/>
      <point x="546" y="409" type="curve" smooth="yes"/>
      <point x="546" y="402"/>
      <point x="550" y="398"/>
      <point x="557" y="398" type="curve"/>
      <point x="575" y="398"/>
      <point x="610" y="398"/>
      <point x="619" y="398" type="curve"/>
      <point x="625" y="398" type="line"/>
      <point x="625" y="281"/>
      <point x="625" y="172"/>
      <point x="625" y="-2" type="curve" smooth="yes"/>
      <point x="625" y="-18"/>
      <point x="621" y="-29"/>
      <point x="613" y="-37" type="curve" smooth="yes"/>
      <point x="605" y="-44"/>
      <point x="594" y="-48"/>
      <point x="578" y="-48" type="curve" smooth="yes"/>
      <point x="556" y="-48"/>
      <point x="541" y="-44"/>
      <point x="515" y="-30" type="curve"/>
      <point x="495" y="-30" type="line"/>
      <point x="495" y="-76"/>
      <point x="495" y="-131"/>
      <point x="495" y="-177" type="curve" smooth="yes"/>
      <point x="495" y="-180"/>
      <point x="496" y="-183"/>
      <point x="498" y="-185" type="curve" smooth="yes"/>
      <point x="513" y="-200"/>
      <point x="552" y="-210"/>
      <point x="621" y="-210" type="curve" smooth="yes"/>
      <point x="724" y="-210"/>
      <point x="775" y="-163"/>
      <point x="775" y="-7" type="curve" smooth="yes"/>
      <point x="775" y="199"/>
      <point x="775" y="364"/>
      <point x="775" y="529" type="curve" smooth="yes"/>
      <point x="775" y="536"/>
      <point x="771" y="540"/>
    </contour>
    <contour>
      <point x="603" y="802" type="curve"/>
      <point x="603" y="663" type="line" smooth="yes"/>
      <point x="603" y="656"/>
      <point x="607" y="652"/>
      <point x="614" y="652" type="curve" smooth="yes"/>
      <point x="670" y="652"/>
      <point x="737" y="652"/>
      <point x="793" y="652" type="curve"/>
      <point x="793" y="791" type="line" smooth="yes"/>
      <point x="793" y="798"/>
      <point x="789" y="802"/>
      <point x="782" y="802" type="curve" smooth="yes"/>
      <point x="726" y="802"/>
      <point x="659" y="802"/>
    </contour>
  </outline>
</glyph>
<glyph name="lj" format="2">
  <advance width="700"/>
  <unicode hex="01C9"/>
  <outline>
    <contour>
      <point x="5" y="750" type="curve"/>
      <point x="5" y="710"/>
      <point x="5" y="671"/>
      <point x="5" y="631" type="curve" smooth="yes"/>
      <point x="5" y="624"/>
      <point x="9" y="620"/>
      <point x="16" y="620" type="curve" smooth="yes"/>
      <point x="30" y="620"/>
      <point x="72" y="620"/>
      <point x="80" y="620" type="curve"/>
      <point x="85" y="620" type="line"/>
      <point x="85" y="465"/>
      <point x="85" y="309"/>
      <point x="85" y="154" type="curve" smooth="yes"/>
      <point x="85" y="50"/>
      <point x="134" y="0"/>
      <point x="219" y="0" type="curve" smooth="yes"/>
      <point x="238" y="0"/>
      <point x="286" y="0"/>
      <point x="299" y="0" type="curve"/>
      <point x="306" y="0"/>
      <point x="310" y="4"/>
      <point x="310" y="11" type="curve"/>
      <point x="310" y="51"/>
      <point x="310" y="102"/>
      <point x="310" y="142" type="curve"/>
      <point x="300" y="142" type="line"/>
      <point x="292" y="142"/>
      <point x="275" y="142"/>
      <point x="265" y="142" type="curve" smooth="yes"/>
      <point x="253" y="142"/>
      <point x="246" y="144"/>
      <point x="241" y="149" type="curve" smooth="yes"/>
      <point x="236" y="154"/>
      <point x="235" y="160"/>
      <point x="235" y="169" type="curve" smooth="yes"/>
      <point x="235" y="363"/>
      <point x="235" y="545"/>
      <point x="235" y="739" type="curve" smooth="yes"/>
      <point x="235" y="746"/>
      <point x="231" y="750"/>
      <point x="224" y="750" type="curve" smooth="yes"/>
      <point x="192" y="750"/>
      <point x="29" y="750"/>
    </contour>
    <contour>
      <point x="604" y="540" type="curve"/>
      <point x="552" y="540"/>
      <point x="485" y="540"/>
      <point x="386" y="540" type="curve"/>
      <point x="386" y="496"/>
      <point x="386" y="453"/>
      <point x="386" y="409" type="curve" smooth="yes"/>
      <point x="386" y="402"/>
      <point x="390" y="398"/>
      <point x="397" y="398" type="curve"/>
      <point x="415" y="398"/>
      <point x="450" y="398"/>
      <point x="459" y="398" type="curve"/>
      <point x="465" y="398" type="line"/>
      <point x="465" y="281"/>
      <point x="465" y="172"/>
      <point x="465" y="-2" type="curve" smooth="yes"/>
      <point x="465" y="-18"/>
      <point x="461" y="-29"/>
      <point x="453" y="-37" type="curve" smooth="yes"/>
      <point x="445" y="-44"/>
      <point x="434" y="-48"/>
      <point x="418" y="-48" type="curve" smooth="yes"/>
      <point x="396" y="-48"/>
      <point x="381" y="-44"/>
      <point x="355" y="-30" type="curve"/>
      <point x="335" y="-30" type="line"/>
      <point x="335" y="-76"/>
      <point x="335" y="-131"/>
      <point x="335" y="-177" type="curve" smooth="yes"/>
      <point x="335" y="-180"/>
      <point x="336" y="-183"/>
      <point x="338" y="-185" type="curve" smooth="yes"/>
      <point x="353" y="-200"/>
      <point x="392" y="-210"/>
      <point x="461" y="-210" type="curve" smooth="yes"/>
      <point x="564" y="-210"/>
      <point x="615" y="-163"/>
      <point x="615" y="-7" type="curve" smooth="yes"/>
      <point x="615" y="199"/>
      <point x="615" y="364"/>
      <point x="615" y="529" type="curve" smooth="yes"/>
      <point x="615" y="536"/>
      <point x="611" y="540"/>
    </contour>
    <contour>
      <point x="443" y="802" type="curve"/>
      <point x="443" y="663" type="line" smooth="yes"/>
      <point x="443" y="656"/>
      <point x="447" y="652"/>
      <point x="454" y="652" type="curve" smooth="yes"/>
      <point x="510" y="652"/>
      <point x="577" y="652"/>
      <point x="633" y="652" type="curve"/>
      <point x="633" y="791" type="line" smooth="yes"/>
      <point x="633" y="798"/>
      <point x="629" y="802"/>
      <point x="622" y="802" type="curve" smooth="yes"/>
      <point x="566" y="802"/>
      <point x="499" y="802"/>
    </contour>
  </outline>
</glyph>
<glyph name="nhookleft" format="2">
  <advance width="600"/>
  <unicode hex="0272"/>
  <outline>
    <contour>
      <point x="38" y="-55" type="curve" smooth="yes"/>
      <point x="24" y="-55"/>
      <point x="16" y="-53"/>
      <point x="5" y="-49" type="curve"/>
      <point x="-15" y="-49" type="line"/>
      <point x="-15" y="-92"/>
      <point x="-15" y="-136"/>
      <point x="-15" y="-178" type="curve"/>
      <point x="-15" y="-181"/>
      <point x="-14" y="-184"/>
      <point x="-12" y="-186" type="curve" smooth="yes"/>
      <point x="-3" y="-195"/>
      <point x="31" y="-202"/>
      <point x="61" y="-202" type="curve" smooth="yes"/>
      <point x="70" y="-202" type="line" smooth="yes"/>
      <point x="177" y="-202"/>
      <point x="230" y="-122"/>
      <point x="230" y="-9" type="curve" smooth="yes"/>
      <point x="230" y="4" type="line" smooth="yes"/>
      <point x="230" y="9"/>
      <point x="223" y="11"/>
      <point x="70" y="11" type="curve"/>
      <point x="70" y="-4" type="line" smooth="yes"/>
      <point x="70" y="-42"/>
      <point x="58" y="-55"/>
    </contour>
    <component base="n"/>
  </outline>
</glyph>
<glyph name="brevecomb" format="2">
  <unicode hex="0306"/>
  <anchor x="0" y="549" name="_top"/>
  <anchor x="0" y="772" name="top"/>
  <anchor x="0" y="782" name="hook"/>
  <outline>
    <contour>
      <point x="0" y="748" type="curve"/>
      <point x="-45" y="748"/>
      <point x="-71" y="764"/>
      <point x="-87" y="811" type="curve"/>
      <point x="-115" y="811"/>
      <point x="-142" y="811"/>
      <point x="-170" y="811" type="curve" smooth="yes"/>
      <point x="-183" y="811"/>
      <point x="-186" y="808"/>
      <point x="-184" y="789" type="curve" smooth="yes"/>
      <point x="-174" y="698"/>
      <point x="-97" y="636"/>
      <point x="-7" y="636" type="curve" smooth="yes"/>
      <point x="7" y="636" type="line" smooth="yes"/>
      <point x="97" y="636"/>
      <point x="174" y="698"/>
      <point x="184" y="789" type="curve" smooth="yes"/>
      <point x="186" y="808"/>
      <point x="183" y="811"/>
      <point x="170" y="811" type="curve" smooth="yes"/>
      <point x="142" y="811"/>
      <point x="115" y="811"/>
      <point x="87" y="811" type="curve"/>
      <point x="71" y="764"/>
      <point x="45" y="748"/>
    </contour>
  </outline>
</glyph>
<glyph name="ogonekcomb" format="2">
  <unicode hex="0328"/>
  <anchor x="25" y="0" name="_ogonek"/>
  <outline>
    <contour>
      <point x="-33" y="42" type="curve" smooth="yes"/>
      <point x="-128" y="42"/>
      <point x="-202" y="-21"/>
      <point x="-202" y="-121" type="curve" smooth="yes"/>
      <point x="-202" y="-203"/>
      <point x="-149" y="-250"/>
      <point x="-62" y="-250" type="curve" smooth="yes"/>
      <point x="-18" y="-250"/>
      <point x="20" y="-236"/>
      <point x="20" y="-215" type="curve" smooth="yes"/>
      <point x="20" y="-131"/>
      <point x="20" y="-114"/>
      <point x="20" y="-93" type="curve"/>
      <point x="0" y="-93" type="line"/>
      <point x="-13" y="-101"/>
      <point x="-28" y="-106"/>
      <point x="-44" y="-106" type="curve" smooth="yes"/>
      <point x="-69" y="-106"/>
      <point x="-82" y="-96"/>
      <point x="-82" y="-71" type="curve" smooth="yes"/>
      <point x="-82" y="-40"/>
      <point x="-54" y="-14"/>
      <point x="-11" y="-6" type="curve" smooth="yes"/>
      <point x="10" y="-2"/>
      <point x="18" y="-1"/>
      <point x="24" y="0" type="curve"/>
      <point x="9" y="29"/>
      <point x="-9" y="42"/>
    </contour>
  </outline>
</glyph>
<glyph name="minute" format="2">
  <advance width="300"/>
  <unicode hex="2032"/>
  <outline>
    <contour>
      <point x="154" y="437" type="curve" smooth="yes"/>
      <point x="159" y="437"/>
      <point x="165" y="438"/>
      <point x="168" y="445" type="curve" smooth="yes"/>
      <point x="209" y="544"/>
      <point x="254" y="646"/>
      <point x="293" y="737" type="curve" smooth="yes"/>
      <point x="297" y="746"/>
      <point x="293" y="750"/>
      <point x="285" y="750" type="curve" smooth="yes"/>
      <point x="214" y="750"/>
      <point x="172" y="750"/>
      <point x="89" y="750" type="curve"/>
      <point x="62" y="644"/>
      <point x="39" y="551"/>
      <point x="10" y="437" type="curve"/>
      <point x="48" y="437"/>
      <point x="91" y="437"/>
    </contour>
  </outline>
</glyph>
<glyph name="second" format="2">
  <advance width="450"/>
  <unicode hex="2033"/>
  <outline>
    <contour>
      <point x="114" y="437" type="curve" smooth="yes"/>
      <point x="119" y="437"/>
      <point x="126" y="439"/>
      <point x="128" y="445" type="curve" smooth="yes"/>
      <point x="166" y="543"/>
      <point x="211" y="646"/>
      <point x="248" y="737" type="curve" smooth="yes"/>
      <point x="251" y="745"/>
      <point x="248" y="750"/>
      <point x="240" y="750" type="curve" smooth="yes"/>
      <point x="198" y="750"/>
      <point x="136" y="750"/>
      <point x="84" y="750" type="curve"/>
      <point x="56" y="644"/>
      <point x="33" y="551"/>
      <point x="0" y="437" type="curve"/>
      <point x="38" y="437"/>
      <point x="85" y="437"/>
    </contour>
    <contour>
      <point x="314" y="437" type="curve" smooth="yes"/>
      <point x="319" y="437"/>
      <point x="326" y="439"/>
      <point x="328" y="445" type="curve" smooth="yes"/>
      <point x="366" y="543"/>
      <point x="411" y="646"/>
      <point x="448" y="737" type="curve" smooth="yes"/>
      <point x="451" y="745"/>
      <point x="448" y="750"/>
      <point x="440" y="750" type="curve" smooth="yes"/>
      <point x="398" y="750"/>
      <point x="336" y="750"/>
      <point x="284" y="750" type="curve"/>
      <point x="256" y="644"/>
      <point x="233" y="551"/>
      <point x="200" y="437" type="curve"/>
      <point x="238" y="437"/>
      <point x="285" y="437"/>
    </contour>
  </outline>
</glyph>
<glyph name="foursuperior" format="2">
  <advance width="600"/>
  <unicode hex="2074"/>
  <outline>
    <contour>
      <point x="416" y="357" type="curve"/>
      <point x="416" y="367"/>
      <point x="416" y="398"/>
      <point x="416" y="408" type="curve" smooth="yes"/>
      <point x="416" y="590" type="line" smooth="yes"/>
      <point x="416" y="597"/>
      <point x="413" y="601"/>
      <point x="405" y="601" type="curve" smooth="yes"/>
      <point x="350" y="601" type="line"/>
      <point x="346" y="591"/>
      <point x="320" y="524"/>
      <point x="320" y="518" type="curve" smooth="yes"/>
      <point x="320" y="368" type="line" smooth="yes"/>
      <point x="320" y="360"/>
      <point x="324" y="357"/>
      <point x="331" y="357" type="curve" smooth="yes"/>
      <point x="341" y="357"/>
      <point x="406" y="357"/>
    </contour>
    <contour>
      <point x="457" y="436" type="line"/>
      <point x="457" y="446"/>
      <point x="457" y="507"/>
      <point x="457" y="517" type="curve" smooth="yes"/>
      <point x="457" y="524"/>
      <point x="453" y="528"/>
      <point x="446" y="528" type="curve" smooth="yes"/>
      <point x="354" y="528" type="line" smooth="yes"/>
      <point x="308" y="528"/>
      <point x="271" y="523"/>
      <point x="230" y="503" type="curve"/>
      <point x="246" y="488" type="line"/>
      <point x="246" y="557" type="line"/>
      <point x="230" y="506" type="line"/>
      <point x="239" y="520"/>
      <point x="362" y="720"/>
      <point x="368" y="730" type="curve"/>
      <point x="368" y="742" type="line"/>
      <point x="358" y="742"/>
      <point x="277" y="742"/>
      <point x="267" y="742" type="curve" smooth="yes"/>
      <point x="262" y="742"/>
      <point x="257" y="741"/>
      <point x="253" y="734" type="curve" smooth="yes"/>
      <point x="247" y="724"/>
      <point x="139" y="516"/>
      <point x="139" y="514" type="curve" smooth="yes"/>
      <point x="139" y="447" type="line" smooth="yes"/>
      <point x="139" y="440"/>
      <point x="143" y="436"/>
      <point x="150" y="436" type="curve" smooth="yes"/>
    </contour>
  </outline>
</glyph>
<glyph name="ruble" format="2">
  <advance width="600"/>
  <unicode hex="20BD"/>
  <outline>
    <contour>
      <point x="75" y="700" type="curve"/>
      <point x="75" y="690"/>
      <point x="75" y="678"/>
      <point x="75" y="665" type="curve" smooth="yes"/>
      <point x="75" y="622"/>
      <point x="111" y="566"/>
      <point x="186" y="566" type="curve" smooth="yes"/>
      <point x="212" y="566"/>
      <point x="287" y="566"/>
      <point x="312" y="566" type="curve" smooth="yes"/>
      <point x="337" y="566"/>
      <point x="356" y="562"/>
      <point x="368" y="550" type="curve"/>
      <point x="380" y="538"/>
      <point x="385" y="525"/>
      <point x="385" y="496" type="curve" smooth="yes"/>
      <point x="385" y="472" type="line" smooth="yes"/>
      <point x="385" y="421"/>
      <point x="362" y="406"/>
      <point x="311" y="406" type="curve" smooth="yes"/>
      <point x="252" y="406"/>
      <point x="101" y="406"/>
      <point x="30" y="406" type="curve"/>
      <point x="30" y="396"/>
      <point x="30" y="294"/>
      <point x="30" y="283" type="curve" smooth="yes"/>
      <point x="30" y="276"/>
      <point x="34" y="272"/>
      <point x="41" y="272" type="curve" smooth="yes"/>
      <point x="52" y="272"/>
      <point x="290" y="272"/>
      <point x="311" y="272" type="curve" smooth="yes"/>
      <point x="482" y="272"/>
      <point x="545" y="343"/>
      <point x="545" y="479" type="curve" smooth="yes"/>
      <point x="545" y="489" type="line" smooth="yes"/>
      <point x="545" y="621"/>
      <point x="482" y="700"/>
      <point x="311" y="700" type="curve" smooth="yes"/>
      <point x="293" y="700"/>
      <point x="121" y="700"/>
    </contour>
    <contour>
      <point x="245" y="700" type="line"/>
      <point x="75" y="700" type="line"/>
      <point x="75" y="646"/>
      <point x="75" y="23"/>
      <point x="75" y="11" type="curve" smooth="yes"/>
      <point x="75" y="4"/>
      <point x="79" y="0"/>
      <point x="86" y="0" type="curve" smooth="yes"/>
      <point x="96" y="0"/>
      <point x="225" y="0"/>
      <point x="235" y="0" type="curve"/>
      <point x="235" y="10"/>
      <point x="235" y="85"/>
      <point x="235" y="98" type="curve" smooth="yes"/>
      <point x="235" y="226"/>
      <point x="235" y="447"/>
      <point x="235" y="483" type="curve" smooth="yes"/>
      <point x="235" y="493"/>
      <point x="235" y="556"/>
      <point x="235" y="566" type="curve"/>
    </contour>
    <contour>
      <point x="30" y="229" type="line"/>
      <point x="30" y="219"/>
      <point x="30" y="133"/>
      <point x="30" y="122" type="curve" smooth="yes"/>
      <point x="30" y="115"/>
      <point x="34" y="111"/>
      <point x="41" y="111" type="curve" smooth="yes"/>
      <point x="422" y="111" type="line"/>
      <point x="422" y="121"/>
      <point x="422" y="209"/>
      <point x="422" y="218" type="curve" smooth="yes"/>
      <point x="422" y="225"/>
      <point x="418" y="229"/>
      <point x="411" y="229" type="curve" smooth="yes"/>
    </contour>
  </outline>
</glyph>
<glyph name="arrowleftright" format="2">
  <advance width="1100"/>
  <unicode hex="2194"/>
  <outline>
    <contour>
      <point x="437" y="287" type="curve" smooth="yes"/>
      <point x="649" y="287" type="line" smooth="yes"/>
      <point x="700" y="287"/>
      <point x="731" y="294"/>
      <point x="824" y="324" type="curve"/>
      <point x="824" y="331"/>
      <point x="824" y="352"/>
      <point x="824" y="359" type="curve" smooth="yes"/>
      <point x="824" y="366"/>
      <point x="822" y="374"/>
      <point x="815" y="376" type="curve" smooth="yes"/>
      <point x="747" y="399"/>
      <point x="712" y="407"/>
      <point x="658" y="407" type="curve" smooth="yes"/>
      <point x="432" y="407" type="line" smooth="yes"/>
      <point x="386" y="407"/>
      <point x="353" y="399"/>
      <point x="276" y="370" type="curve"/>
      <point x="276" y="363"/>
      <point x="276" y="345"/>
      <point x="276" y="338" type="curve" smooth="yes"/>
      <point x="276" y="331"/>
      <point x="279" y="326"/>
      <point x="286" y="323" type="curve" smooth="yes"/>
      <point x="349" y="299"/>
      <point x="391" y="287"/>
    </contour>
    <contour>
      <point x="50" y="414" type="curve"/>
      <point x="50" y="299" type="line" smooth="yes"/>
      <point x="50" y="286"/>
      <point x="52" y="283"/>
      <point x="66" y="273" type="curve" smooth="yes"/>
      <point x="102" y="247"/>
      <point x="264" y="139"/>
      <point x="366" y="71" type="curve"/>
      <point x="379" y="62"/>
      <point x="382" y="61"/>
      <point x="387" y="61" type="curve" smooth="yes"/>
      <point x="392" y="61"/>
      <point x="395" y="65"/>
      <point x="395" y="70" type="curve"/>
      <point x="395" y="115"/>
      <point x="395" y="158"/>
      <point x="395" y="203" type="curve"/>
      <point x="231" y="307"/>
      <point x="221" y="310"/>
      <point x="133" y="351" type="curve"/>
      <point x="160" y="313" type="line"/>
      <point x="160" y="385" type="line"/>
      <point x="133" y="347" type="line"/>
      <point x="221" y="388"/>
      <point x="231" y="391"/>
      <point x="395" y="495" type="curve"/>
      <point x="395" y="540"/>
      <point x="395" y="583"/>
      <point x="395" y="628" type="curve"/>
      <point x="395" y="633"/>
      <point x="392" y="637"/>
      <point x="387" y="637" type="curve" smooth="yes"/>
      <point x="382" y="637"/>
      <point x="379" y="636"/>
      <point x="366" y="627" type="curve"/>
      <point x="259" y="555"/>
      <point x="156" y="485"/>
    </contour>
    <contour>
      <point x="1050" y="284" type="curve"/>
      <point x="1050" y="399" type="line" smooth="yes"/>
      <point x="1050" y="412"/>
      <point x="1048" y="415"/>
      <point x="1034" y="425" type="curve" smooth="yes"/>
      <point x="998" y="451"/>
      <point x="836" y="559"/>
      <point x="734" y="627" type="curve"/>
      <point x="721" y="636"/>
      <point x="718" y="637"/>
      <point x="713" y="637" type="curve" smooth="yes"/>
      <point x="708" y="637"/>
      <point x="705" y="633"/>
      <point x="705" y="628" type="curve"/>
      <point x="705" y="583"/>
      <point x="705" y="540"/>
      <point x="705" y="495" type="curve"/>
      <point x="869" y="391"/>
      <point x="879" y="388"/>
      <point x="967" y="347" type="curve"/>
      <point x="940" y="385" type="line"/>
      <point x="940" y="313" type="line"/>
      <point x="967" y="351" type="line"/>
      <point x="879" y="310"/>
      <point x="869" y="307"/>
      <point x="705" y="203" type="curve"/>
      <point x="705" y="158"/>
      <point x="705" y="115"/>
      <point x="705" y="70" type="curve"/>
      <point x="705" y="65"/>
      <point x="708" y="61"/>
      <point x="713" y="61" type="curve" smooth="yes"/>
      <point x="718" y="61"/>
      <point x="721" y="62"/>
      <point x="734" y="71" type="curve"/>
      <point x="841" y="143"/>
      <point x="944" y="213"/>
    </contour>
  </outline>
</glyph>
<glyph name="lessequal" format="2">
  <advance width="600"/>
  <unicode hex="2264"/>
  <outline>
    <contour>
      <point x="60" y="165" type="line"/>
      <point x="60" y="128"/>
      <point x="60" y="92"/>
      <point x="60" y="55" type="curve" smooth="yes"/>
      <point x="60" y="48"/>
      <point x="64" y="44"/>
      <point x="71" y="44" type="curve" smooth="yes"/>
      <point x="540" y="44" type="line"/>
      <point x="540" y="81"/>
      <point x="540" y="117"/>
      <point x="540" y="154" type="curve" smooth="yes"/>
      <point x="540" y="161"/>
      <point x="536" y="165"/>
      <point x="529" y="165" type="curve"/>
    </contour>
    <contour>
      <point x="60" y="464" type="curve"/>
      <point x="60" y="406"/>
      <point x="60" y="347"/>
      <point x="60" y="289" type="curve" smooth="yes"/>
      <point x="60" y="279"/>
      <point x="62" y="275"/>
      <point x="72" y="273" type="curve" smooth="yes"/>
      <point x="226" y="246"/>
      <point x="384" y="220"/>
      <point x="540" y="193" type="curve"/>
      <point x="540" y="228"/>
      <point x="540" y="263"/>
      <point x="540" y="298" type="curve" smooth="yes"/>
      <point x="540" y="308"/>
      <point x="538" y="315"/>
      <point x="526" y="316" type="curve"/>
      <point x="405" y="332"/>
      <point x="284" y="347"/>
      <point x="163" y="363" type="curve"/>
      <point x="178" y="352" type="line"/>
      <point x="178" y="391" type="line"/>
      <point x="162" y="378" type="line"/>
      <point x="288" y="400"/>
      <point x="414" y="422"/>
      <point x="540" y="444" type="curve"/>
      <point x="540" y="482"/>
      <point x="540" y="521"/>
      <point x="540" y="559" type="curve" smooth="yes"/>
      <point x="540" y="565"/>
      <point x="537" y="569"/>
      <point x="531" y="569" type="curve" smooth="yes"/>
      <point x="527" y="569"/>
      <point x="523" y="568"/>
      <point x="507" y="565" type="curve" smooth="yes"/>
      <point x="454" y="552"/>
      <point x="222" y="500"/>
    </contour>
  </outline>
</glyph>
<glyph name="f_f" format="2">
  <advance width="800"/>
  <unicode hex="FB00"/>
  <outline>
    <contour>
      <point x="245" y="11" type="curve" smooth="yes"/>
      <point x="245" y="147"/>
      <point x="245" y="420"/>
      <point x="245" y="556" type="curve" smooth="yes"/>
      <point x="245" y="591"/>
      <point x="249" y="613"/>
      <point x="261" y="625" type="curve" smooth="yes"/>
      <point x="273" y="636"/>
      <point x="287" y="640"/>
      <point x="320" y="640" type="curve" smooth="yes"/>
      <point x="351" y="640"/>
      <point x="380" y="635"/>
      <point x="410" y="625" type="curve"/>
      <point x="430" y="625" type="line"/>
      <point x="430" y="664"/>
      <point x="430" y="702"/>
      <point x="430" y="739" type="curve"/>
      <point x="430" y="742"/>
      <point x="429" y="745"/>
      <point x="427" y="747" type="curve" smooth="yes"/>
      <point x="417" y="757"/>
      <point x="374" y="770"/>
      <point x="306" y="770" type="curve" smooth="yes"/>
      <point x="164" y="770"/>
      <point x="95" y="692"/>
      <point x="95" y="558" type="curve" smooth="yes"/>
      <point x="95" y="389"/>
      <point x="95" y="269"/>
      <point x="95" y="100" type="curve" smooth="yes"/>
      <point x="95" y="67"/>
      <point x="95" y="33"/>
      <point x="95" y="0" type="curve"/>
      <point x="143" y="0"/>
      <point x="186" y="0"/>
      <point x="234" y="0" type="curve" smooth="yes"/>
      <point x="240" y="0"/>
      <point x="245" y="5"/>
    </contour>
    <contour>
      <point x="788" y="380" type="line"/>
      <point x="788" y="422"/>
      <point x="788" y="457"/>
      <point x="788" y="499" type="curve"/>
      <point x="788" y="506"/>
      <point x="784" y="510"/>
      <point x="777" y="510" type="curve" smooth="yes"/>
      <point x="20" y="510" type="line"/>
      <point x="20" y="468"/>
      <point x="20" y="433"/>
      <point x="20" y="391" type="curve" smooth="yes"/>
      <point x="20" y="384"/>
      <point x="24" y="380"/>
      <point x="31" y="380" type="curve" smooth="yes"/>
    </contour>
    <contour>
      <point x="623" y="11" type="curve" smooth="yes"/>
      <point x="623" y="147"/>
      <point x="623" y="420"/>
      <point x="623" y="556" type="curve" smooth="yes"/>
      <point x="623" y="591"/>
      <point x="627" y="613"/>
      <point x="639" y="625" type="curve" smooth="yes"/>
      <point x="651" y="636"/>
      <point x="663" y="640"/>
      <point x="688" y="640" type="curve" smooth="yes"/>
      <point x="721" y="640"/>
      <point x="750" y="635"/>
      <point x="785" y="625" type="curve"/>
      <point x="805" y="625" type="line"/>
      <point x="805" y="664"/>
      <point x="805" y="702"/>
      <point x="805" y="739" type="curve"/>
      <point x="805" y="742"/>
      <point x="804" y="745"/>
      <point x="802" y="747" type="curve" smooth="yes"/>
      <point x="792" y="757"/>
      <point x="756" y="770"/>
      <point x="691" y="770" type="curve" smooth="yes"/>
      <point x="550" y="770"/>
      <point x="473" y="692"/>
      <point x="473" y="558" type="curve" smooth="yes"/>
      <point x="473" y="389"/>
      <point x="473" y="269"/>
      <point x="473" y="100" type="curve" smooth="yes"/>
      <point x="473" y="67"/>
      <point x="473" y="33"/>
      <point x="473" y="0" type="curve"/>
      <point x="521" y="0"/>
      <point x="564" y="0"/>
      <point x="612" y="0" type="curve" smooth="yes"/>
      <point x="618" y="0"/>
      <point x="623" y="5"/>
    </contour>
  </outline>
</glyph>
<glyph name="f_f_i" format="2">
  <advance width="1100"/>
  <unicode hex="FB03"/>
  <outline>
    <contour>
      <point x="245" y="11" type="curve" smooth="yes"/>
      <point x="245" y="147"/>
      <point x="245" y="420"/>
      <point x="245" y="556" type="curve" smooth="yes"/>
      <point x="245" y="591"/>
      <point x="249" y="613"/>
      <point x="261" y="625" type="curve" smooth="yes"/>
      <point x="273" y="636"/>
      <point x="291" y="640"/>
      <point x="323" y="640" type="curve" smooth="yes"/>
      <point x="359" y="640"/>
      <point x="389" y="634"/>
      <point x="420" y="625" type="curve"/>
      <point x="440" y="625" type="line"/>
      <point x="440" y="664"/>
      <point x="440" y="702"/>
      <point x="440" y="739" type="curve"/>
      <point x="440" y="742"/>
      <point x="439" y="745"/>
      <point x="437" y="747" type="curve" smooth="yes"/>
      <point x="427" y="757"/>
      <point x="388" y="770"/>
      <point x="326" y="770" type="curve" smooth="yes"/>
      <point x="179" y="770"/>
      <point x="95" y="692"/>
      <point x="95" y="558" type="curve" smooth="yes"/>
      <point x="95" y="389"/>
      <point x="95" y="269"/>
      <point x="95" y="100" type="curve" smooth="yes"/>
      <point x="95" y="67"/>
      <point x="95" y="33"/>
      <point x="95" y="0" type="curve"/>
      <point x="143" y="0"/>
      <point x="186" y="0"/>
      <point x="234" y="0" type="curve" smooth="yes"/>
      <point x="240" y="0"/>
      <point x="245" y="5"/>
    </contour>
    <contour>
      <point x="621" y="11" type="curve" smooth="yes"/>
      <point x="621" y="147"/>
      <point x="621" y="420"/>
      <point x="621" y="556" type="curve" smooth="yes"/>
      <point x="621" y="591"/>
      <point x="625" y="613"/>
      <point x="637" y="625" type="curve" smooth="yes"/>
      <point x="649" y="636"/>
      <point x="663" y="640"/>
      <point x="686" y="640" type="curve" smooth="yes"/>
      <point x="712" y="640"/>
      <point x="740" y="636"/>
      <point x="772" y="625" type="curve"/>
      <point x="792" y="625" type="line"/>
      <point x="792" y="664"/>
      <point x="792" y="702"/>
      <point x="792" y="739" type="curve"/>
      <point x="792" y="742"/>
      <point x="791" y="745"/>
      <point x="789" y="747" type="curve" smooth="yes"/>
      <point x="779" y="757"/>
      <point x="742" y="770"/>
      <point x="677" y="770" type="curve" smooth="yes"/>
      <point x="539" y="770"/>
      <point x="471" y="692"/>
      <point x="471" y="558" type="curve" smooth="yes"/>
      <point x="471" y="389"/>
      <point x="471" y="269"/>
      <point x="471" y="100" type="curve" smooth="yes"/>
      <point x="471" y="67"/>
      <point x="471" y="33"/>
      <point x="471" y="0" type="curve"/>
      <point x="519" y="0"/>
      <point x="562" y="0"/>
      <point x="610" y="0" type="curve" smooth="yes"/>
      <point x="616" y="0"/>
      <point x="621" y="5"/>
    </contour>
    <contour>
      <point x="886" y="380" type="line"/>
      <point x="886" y="422"/>
      <point x="886" y="457"/>
      <point x="886" y="499" type="curve" smooth="yes"/>
      <point x="886" y="506"/>
      <point x="882" y="510"/>
      <point x="875" y="510" type="curve" smooth="yes"/>
      <point x="20" y="510" type="line"/>
      <point x="20" y="468"/>
      <point x="20" y="433"/>
      <point x="20" y="391" type="curve" smooth="yes"/>
      <point x="20" y="384"/>
      <point x="24" y="380"/>
      <point x="31" y="380" type="curve" smooth="yes"/>
    </contour>
    <contour>
      <point x="839" y="802" type="curve"/>
      <point x="839" y="663" type="line" smooth="yes"/>
      <point x="839" y="656"/>
      <point x="843" y="652"/>
      <point x="850" y="652" type="curve" smooth="yes"/>
      <point x="906" y="652"/>
      <point x="973" y="652"/>
      <point x="1029" y="652" type="curve"/>
      <point x="1029" y="791" type="line" smooth="yes"/>
      <point x="1029" y="798"/>
      <point x="1025" y="802"/>
      <point x="1018" y="802" type="curve" smooth="yes"/>
      <point x="962" y="802"/>
      <point x="895" y="802"/>
    </contour>
    <contour>
      <point x="847" y="510" type="curve"/>
      <point x="847" y="467"/>
      <point x="847" y="424"/>
      <point x="847" y="381" type="curve" smooth="yes"/>
      <point x="847" y="300"/>
      <point x="847" y="90"/>
      <point x="847" y="11" type="curve"/>
      <point x="847" y="4"/>
      <point x="851" y="0"/>
      <point x="858" y="0" type="curve"/>
      <point x="908" y="0"/>
      <point x="947" y="0"/>
      <point x="997" y="0" type="curve"/>
      <point x="997" y="33"/>
      <point x="997" y="66"/>
      <point x="997" y="99" type="curve"/>
      <point x="997" y="223"/>
      <point x="997" y="430"/>
      <point x="997" y="499" type="curve" smooth="yes"/>
      <point x="997" y="506"/>
      <point x="993" y="510"/>
      <point x="986" y="510" type="curve" smooth="yes"/>
      <point x="956" y="510"/>
      <point x="862" y="510"/>
    </contour>
  </outline>
</glyph>
<glyph name="d.italic" format="2">
  <advance width="600"/>
  <anchor x="606" y="711" name="caronslovak"/>
  <anchor x="296" y="0" name="bottom"/>
  <outline>
    <contour>
      <point x="218" y="552" type="curve" smooth="yes"/>
      <point x="118" y="552"/>
      <point x="55" y="481"/>
      <point x="55" y="358" type="curve" smooth="yes"/>
      <point x="55" y="184" type="line" smooth="yes"/>
      <point x="55" y="62"/>
      <point x="118" y="-10"/>
      <point x="218" y="-10" type="curve" smooth="yes"/>
      <point x="281" y="-10"/>
      <point x="333" y="27"/>
      <point x="361" y="89" type="curve"/>
      <point x="386" y="89" type="line"/>
      <point x="386" y="211" type="line"/>
      <point x="352" y="165"/>
      <point x="312" y="135"/>
      <point x="274" y="135" type="curve" smooth="yes"/>
      <point x="254" y="135"/>
      <point x="238" y="140"/>
      <point x="227" y="151" type="curve" smooth="yes"/>
      <point x="216" y="162"/>
      <point x="210" y="181"/>
      <point x="210" y="209" type="curve" smooth="yes"/>
      <point x="210" y="333" type="line" smooth="yes"/>
      <point x="210" y="381"/>
      <point x="233" y="407"/>
      <point x="274" y="407" type="curve" smooth="yes"/>
      <point x="314" y="407"/>
      <point x="352" y="389"/>
      <point x="387" y="358" type="curve"/>
      <point x="387" y="473" type="line"/>
      <point x="355" y="473" type="line"/>
      <point x="322" y="518"/>
      <point x="273" y="552"/>
    </contour>
    <contour>
      <point x="375" y="750" type="curve"/>
      <point x="375" y="704"/>
      <point x="375" y="657"/>
      <point x="375" y="611" type="curve" smooth="yes"/>
      <point x="375" y="451"/>
      <point x="375" y="291"/>
      <point x="375" y="131" type="curve" smooth="yes"/>
      <point x="375" y="63"/>
      <point x="419" y="0"/>
      <point x="520" y="0" type="curve" smooth="yes"/>
      <point x="536" y="0"/>
      <point x="553" y="0"/>
      <point x="569" y="0" type="curve" smooth="yes"/>
      <point x="576" y="0"/>
      <point x="580" y="4"/>
      <point x="580" y="11" type="curve" smooth="yes"/>
      <point x="580" y="51"/>
      <point x="580" y="90"/>
      <point x="580" y="130" type="curve"/>
      <point x="560" y="130" type="line"/>
      <point x="557" y="130"/>
      <point x="554" y="130"/>
      <point x="551" y="130" type="curve" smooth="yes"/>
      <point x="545" y="130"/>
      <point x="539" y="132"/>
      <point x="536" y="135" type="curve" smooth="yes"/>
      <point x="532" y="139"/>
      <point x="530" y="144"/>
      <point x="530" y="152" type="curve" smooth="yes"/>
      <point x="530" y="348"/>
      <point x="530" y="543"/>
      <point x="530" y="739" type="curve" smooth="yes"/>
      <point x="530" y="746"/>
      <point x="526" y="750"/>
      <point x="519" y="750" type="curve" smooth="yes"/>
      <point x="471" y="750"/>
      <point x="423" y="750"/>
    </contour>
  </outline>
</glyph>
<glyph name="exclam_equal_equal.code" format="2">
  <advance width="1800"/>
  <outline>
    <contour>
      <point x="1700" y="508" type="line"/>
      <point x="1700" y="554"/>
      <point x="1700" y="593"/>
      <point x="1700" y="639" type="curve" smooth="yes"/>
      <point x="1700" y="646"/>
      <point x="1696" y="650"/>
      <point x="1689" y="650" type="curve" smooth="yes"/>
      <point x="100" y="650" type="line"/>
      <point x="100" y="604"/>
      <point x="100" y="565"/>
      <point x="100" y="519" type="curve" smooth="yes"/>
      <point x="100" y="512"/>
      <point x="104" y="508"/>
      <point x="111" y="508" type="curve" smooth="yes"/>
    </contour>
    <contour>
      <point x="1700" y="278" type="line"/>
      <point x="1700" y="324"/>
      <point x="1700" y="363"/>
      <point x="1700" y="409" type="curve" smooth="yes"/>
      <point x="1700" y="416"/>
      <point x="1696" y="420"/>
      <point x="1689" y="420" type="curve" smooth="yes"/>
      <point x="100" y="420" type="line"/>
      <point x="100" y="374"/>
      <point x="100" y="335"/>
      <point x="100" y="289" type="curve" smooth="yes"/>
      <point x="100" y="282"/>
      <point x="104" y="278"/>
      <point x="111" y="278" type="curve" smooth="yes"/>
    </contour>
    <contour>
      <point x="1700" y="48" type="line"/>
      <point x="1700" y="94"/>
      <point x="1700" y="133"/>
      <point x="1700" y="179" type="curve" smooth="yes"/>
      <point x="1700" y="186"/>
      <point x="1696" y="190"/>
      <point x="1689" y="190" type="curve" smooth="yes"/>
      <point x="100" y="190" type="line"/>
      <point x="100" y="144"/>
      <point x="100" y="105"/>
      <point x="100" y="59" type="curve" smooth="yes"/>
      <point x="100" y="52"/>
      <point x="104" y="48"/>
      <point x="111" y="48" type="curve" smooth="yes"/>
    </contour>
    <contour>
      <point x="1103" y="770" type="curve"/>
      <point x="1053" y="770"/>
      <point x="1007" y="770"/>
      <point x="957" y="770" type="curve" smooth="yes"/>
      <point x="951" y="770"/>
      <point x="947" y="768"/>
      <point x="945" y="763" type="curve" smooth="yes"/>
      <point x="848" y="509"/>
      <point x="750" y="253"/>
      <point x="653" y="-1" type="curve" smooth="yes"/>
      <point x="639" y="-37"/>
      <point x="625" y="-74"/>
      <point x="611" y="-110" type="curve"/>
      <point x="661" y="-110"/>
      <point x="706" y="-110"/>
      <point x="756" y="-110" type="curve" smooth="yes"/>
      <point x="762" y="-110"/>
      <point x="768" y="-107"/>
      <point x="771" y="-99" type="curve" smooth="yes"/>
      <point x="882" y="190"/>
      <point x="992" y="481"/>
    </contour>
  </outline>
</glyph>
<glyph name="f.italic" format="2">
  <advance width="400"/>
  <outline>
    <contour>
      <point x="30" y="450" type="line"/>
      <point x="30" y="408"/>
      <point x="30" y="373"/>
      <point x="30" y="331" type="curve" smooth="yes"/>
      <point x="30" y="324"/>
      <point x="34" y="320"/>
      <point x="41" y="320" type="curve" smooth="yes"/>
      <point x="370" y="320" type="line"/>
      <point x="370" y="362"/>
      <point x="370" y="397"/>
      <point x="370" y="439" type="curve"/>
      <point x="370" y="446"/>
      <point x="366" y="450"/>
      <point x="359" y="450" type="curve" smooth="yes"/>
    </contour>
    <contour>
      <point x="314" y="770" type="curve" smooth="yes"/>
      <point x="170" y="770"/>
      <point x="104" y="693"/>
      <point x="104" y="545" type="curve" smooth="yes"/>
      <point x="104" y="339"/>
      <point x="104" y="119"/>
      <point x="104" y="-100" type="curve" smooth="yes"/>
      <point x="104" y="-133"/>
      <point x="104" y="-167"/>
      <point x="104" y="-200" type="curve"/>
      <point x="152" y="-200"/>
      <point x="196" y="-200"/>
      <point x="244" y="-200" type="curve" smooth="yes"/>
      <point x="250" y="-200"/>
      <point x="255" y="-195"/>
      <point x="255" y="-189" type="curve" smooth="yes"/>
      <point x="255" y="58"/>
      <point x="255" y="288"/>
      <point x="255" y="581" type="curve" smooth="yes"/>
      <point x="255" y="605"/>
      <point x="261" y="623"/>
      <point x="271" y="633" type="curve" smooth="yes"/>
      <point x="279" y="641"/>
      <point x="289" y="645"/>
      <point x="302" y="645" type="curve" smooth="yes"/>
      <point x="308" y="645"/>
      <point x="313" y="644"/>
      <point x="320" y="642" type="curve"/>
      <point x="320" y="618"/>
      <point x="320" y="594"/>
      <point x="320" y="569" type="curve"/>
      <point x="320" y="560" type="line"/>
      <point x="361" y="560"/>
      <point x="383" y="560"/>
      <point x="424" y="560" type="curve" smooth="yes"/>
      <point x="431" y="560"/>
      <point x="435" y="564"/>
      <point x="435" y="571" type="curve" smooth="yes"/>
      <point x="435" y="731" type="line"/>
      <point x="435" y="734"/>
      <point x="434" y="737"/>
      <point x="432" y="739" type="curve" smooth="yes"/>
      <point x="419" y="752"/>
      <point x="380" y="770"/>
    </contour>
  </outline>
</glyph>
<glyph name="g.mono" format="2">
  <advance width="600"/>
  <anchor x="291" y="551" name="top"/>
  <outline>
    <contour>
      <point x="386" y="517" type="line"/>
      <point x="476" y="475" type="line"/>
      <point x="476" y="509" type="line"/>
      <point x="524" y="516" type="line" smooth="yes"/>
      <point x="582" y="524"/>
      <point x="585" y="524"/>
      <point x="585" y="545" type="curve"/>
      <point x="585" y="628" type="line"/>
      <point x="585" y="635"/>
      <point x="581" y="639"/>
      <point x="574" y="639" type="curve"/>
      <point x="527" y="639"/>
      <point x="469" y="639"/>
      <point x="422" y="639" type="curve"/>
      <point x="422" y="627"/>
      <point x="422" y="623"/>
      <point x="422" y="589" type="curve" smooth="yes"/>
      <point x="422" y="578"/>
      <point x="421" y="573"/>
      <point x="416" y="565" type="curve" smooth="yes"/>
    </contour>
    <contour>
      <point x="293" y="551" type="curve" smooth="yes"/>
      <point x="141" y="551"/>
      <point x="60" y="485"/>
      <point x="60" y="374" type="curve" smooth="yes"/>
      <point x="60" y="353" type="line" smooth="yes"/>
      <point x="60" y="242"/>
      <point x="141" y="176"/>
      <point x="293" y="176" type="curve"/>
      <point x="445" y="176"/>
      <point x="526" y="242"/>
      <point x="526" y="353" type="curve" smooth="yes"/>
      <point x="526" y="374" type="line" smooth="yes"/>
      <point x="526" y="485"/>
      <point x="445" y="551"/>
    </contour>
    <contour>
      <point x="293" y="437" type="curve" smooth="yes"/>
      <point x="327" y="437"/>
      <point x="351" y="430"/>
      <point x="365" y="417" type="curve"/>
      <point x="376" y="406"/>
      <point x="381" y="392"/>
      <point x="381" y="374" type="curve" smooth="yes"/>
      <point x="381" y="353" type="line" smooth="yes"/>
      <point x="381" y="310"/>
      <point x="351" y="290"/>
      <point x="293" y="290" type="curve" smooth="yes"/>
      <point x="259" y="290"/>
      <point x="234" y="297"/>
      <point x="220" y="311" type="curve" smooth="yes"/>
      <point x="210" y="321"/>
      <point x="205" y="335"/>
      <point x="205" y="353" type="curve" smooth="yes"/>
      <point x="205" y="374" type="line" smooth="yes"/>
      <point x="205" y="417"/>
      <point x="235" y="437"/>
    </contour>
    <contour>
      <point x="194" y="212" type="line"/>
      <point x="194" y="171" type="line"/>
      <point x="136" y="153"/>
      <point x="110" y="119"/>
      <point x="110" y="72" type="curve" smooth="yes"/>
      <point x="110" y="21"/>
      <point x="155" y="-20"/>
      <point x="199" y="-20" type="curve" smooth="yes"/>
      <point x="382" y="-20" type="line" smooth="yes"/>
      <point x="415" y="-20"/>
      <point x="427" y="-30"/>
      <point x="427" y="-65" type="curve" smooth="yes"/>
      <point x="427" y="-89" type="line" smooth="yes"/>
      <point x="427" y="-107"/>
      <point x="424" y="-122"/>
      <point x="416" y="-130" type="curve" smooth="yes"/>
      <point x="409" y="-137"/>
      <point x="398" y="-140"/>
      <point x="382" y="-140" type="curve" smooth="yes"/>
      <point x="228" y="-140" type="line" smooth="yes"/>
      <point x="195" y="-140"/>
      <point x="183" y="-130"/>
      <point x="183" y="-96" type="curve" smooth="yes"/>
      <point x="183" y="-68" type="line" smooth="yes"/>
      <point x="183" y="-42"/>
      <point x="190" y="-27"/>
      <point x="214" y="-16" type="curve"/>
      <point x="138" y="30" type="line"/>
      <point x="138" y="-10" type="line"/>
      <point x="76" y="-19"/>
      <point x="35" y="-59"/>
      <point x="35" y="-118" type="curve" smooth="yes"/>
      <point x="35" y="-131" type="line" smooth="yes"/>
      <point x="35" y="-209"/>
      <point x="88" y="-250"/>
      <point x="191" y="-250" type="curve"/>
      <point x="400" y="-250" type="line" smooth="yes"/>
      <point x="519" y="-250"/>
      <point x="575" y="-184"/>
      <point x="575" y="-90" type="curve" smooth="yes"/>
      <point x="575" y="-55" type="line" smooth="yes"/>
      <point x="575" y="39"/>
      <point x="519" y="105"/>
      <point x="400" y="105" type="curve" smooth="yes"/>
      <point x="277" y="105" type="line" smooth="yes"/>
      <point x="264" y="105"/>
      <point x="260" y="109"/>
      <point x="260" y="122" type="curve" smooth="yes"/>
      <point x="260" y="141"/>
      <point x="260" y="162"/>
      <point x="260" y="212" type="curve"/>
    </contour>
  </outline>
</glyph>
<glyph name="hookcomb.case" format="2">
  <anchor x="0" y="710" name="_hook"/>
  <anchor x="0" y="679" name="_side"/>
  <outline>
    <contour>
      <point x="-66" y="750" type="curve" smooth="yes"/>
      <point x="-72" y="743"/>
      <point x="-73" y="737"/>
      <point x="-63" y="737" type="curve" smooth="yes"/>
      <point x="-43" y="737"/>
      <point x="6" y="737"/>
      <point x="34" y="737" type="curve"/>
      <point x="46" y="750"/>
      <point x="60" y="766"/>
      <point x="73" y="782" type="curve" smooth="yes"/>
      <point x="95" y="807"/>
      <point x="114" y="830"/>
      <point x="114" y="832" type="curve" smooth="yes"/>
      <point x="114" y="919" type="line" smooth="yes"/>
      <point x="114" y="927"/>
      <point x="109" y="930"/>
      <point x="102" y="930" type="curve" smooth="yes"/>
      <point x="49" y="930"/>
      <point x="-82" y="930"/>
      <point x="-119" y="930" type="curve" smooth="yes"/>
      <point x="-126" y="930"/>
      <point x="-130" y="926"/>
      <point x="-130" y="919" type="curve" smooth="yes"/>
      <point x="-130" y="896"/>
      <point x="-130" y="869"/>
      <point x="-130" y="832" type="curve"/>
      <point x="-108" y="832" type="line"/>
      <point x="-91" y="832"/>
      <point x="-62" y="832"/>
      <point x="-50" y="832" type="curve" smooth="yes"/>
      <point x="-38" y="832"/>
      <point x="-23" y="832"/>
      <point x="-13" y="832" type="curve"/>
      <point x="-13" y="826"/>
      <point x="-13" y="822"/>
      <point x="-13" y="820" type="curve"/>
      <point x="-22" y="806"/>
      <point x="-31" y="794"/>
      <point x="-39" y="784" type="curve" smooth="yes"/>
      <point x="-49" y="771"/>
      <point x="-58" y="761"/>
    </contour>
  </outline>
</glyph>
<glyph name="horncomb.case" format="2">
  <anchor x="0" y="700" name="_horn"/>
  <outline>
    <contour>
      <point x="18" y="856" type="curve"/>
      <point x="18" y="828"/>
      <point x="18" y="789"/>
      <point x="18" y="775" type="curve" smooth="yes"/>
      <point x="18" y="753"/>
      <point x="16" y="742"/>
      <point x="11" y="727" type="curve" smooth="yes"/>
      <point x="7" y="714"/>
      <point x="4" y="707"/>
      <point x="1" y="700" type="curve"/>
      <point x="1" y="675"/>
      <point x="1" y="592"/>
      <point x="1" y="574" type="curve"/>
      <point x="35" y="604"/>
      <point x="60" y="627"/>
      <point x="98" y="665" type="curve" smooth="yes"/>
      <point x="135" y="702"/>
      <point x="148" y="728"/>
      <point x="148" y="793" type="curve" smooth="yes"/>
      <point x="148" y="804"/>
      <point x="148" y="832"/>
      <point x="148" y="840" type="curve" smooth="yes"/>
      <point x="148" y="851"/>
      <point x="144" y="856"/>
      <point x="132" y="856" type="curve" smooth="yes"/>
      <point x="97" y="856"/>
      <point x="55" y="856"/>
    </contour>
  </outline>
</glyph>
<glyph name="parenleft.case" format="2">
  <advance width="400"/>
  <outline>
    <contour>
      <point x="214" y="772" type="curve" smooth="yes"/>
      <point x="105" y="659"/>
      <point x="57" y="522"/>
      <point x="57" y="353" type="curve" smooth="yes"/>
      <point x="57" y="344" type="line" smooth="yes"/>
      <point x="57" y="175"/>
      <point x="103" y="34"/>
      <point x="214" y="-75" type="curve" smooth="yes"/>
      <point x="222" y="-83"/>
      <point x="227" y="-83"/>
      <point x="234" y="-83" type="curve"/>
      <point x="291" y="-83"/>
      <point x="333" y="-83"/>
      <point x="395" y="-83" type="curve"/>
      <point x="395" y="-63" type="line"/>
      <point x="267" y="49"/>
      <point x="212" y="197"/>
      <point x="212" y="344" type="curve" smooth="yes"/>
      <point x="212" y="353" type="line" smooth="yes"/>
      <point x="212" y="500"/>
      <point x="269" y="642"/>
      <point x="395" y="760" type="curve"/>
      <point x="395" y="780" type="line"/>
      <point x="333" y="780"/>
      <point x="291" y="780"/>
      <point x="234" y="780" type="curve" smooth="yes"/>
      <point x="227" y="780"/>
      <point x="222" y="780"/>
    </contour>
  </outline>
</glyph>
<glyph name="question_question.code" format="2">
  <advance width="1200"/>
  <outline>
    <contour>
      <point x="410" y="-10" type="curve"/>
      <point x="410" y="169" type="line" smooth="yes"/>
      <point x="410" y="176"/>
      <point x="406" y="180"/>
      <point x="399" y="180" type="curve" smooth="yes"/>
      <point x="336" y="180"/>
      <point x="273" y="180"/>
      <point x="210" y="180" type="curve"/>
      <point x="210" y="1" type="line" smooth="yes"/>
      <point x="210" y="-6"/>
      <point x="214" y="-10"/>
      <point x="221" y="-10" type="curve" smooth="yes"/>
      <point x="284" y="-10"/>
      <point x="347" y="-10"/>
    </contour>
    <contour>
      <point x="358" y="720" type="curve" smooth="yes"/>
      <point x="221" y="720"/>
      <point x="134" y="697"/>
      <point x="114" y="677" type="curve" smooth="yes"/>
      <point x="111" y="674"/>
      <point x="110" y="671"/>
      <point x="110" y="666" type="curve" smooth="yes"/>
      <point x="110" y="619"/>
      <point x="110" y="573"/>
      <point x="110" y="526" type="curve"/>
      <point x="130" y="526" type="line"/>
      <point x="187" y="558"/>
      <point x="255" y="570"/>
      <point x="343" y="570" type="curve" smooth="yes"/>
      <point x="392" y="570"/>
      <point x="419" y="565"/>
      <point x="432" y="556" type="curve"/>
      <point x="441" y="549"/>
      <point x="444" y="539"/>
      <point x="444" y="527" type="curve" smooth="yes"/>
      <point x="444" y="495"/>
      <point x="423" y="483"/>
      <point x="353" y="443" type="curve" smooth="yes"/>
      <point x="330" y="430" type="line" smooth="yes"/>
      <point x="249" y="384"/>
      <point x="232" y="352"/>
      <point x="232" y="289" type="curve" smooth="yes"/>
      <point x="232" y="263" type="line" smooth="yes"/>
      <point x="232" y="254"/>
      <point x="235" y="252"/>
      <point x="243" y="252" type="curve" smooth="yes"/>
      <point x="384" y="252" type="line"/>
      <point x="384" y="258" type="line" smooth="yes"/>
      <point x="384" y="291"/>
      <point x="392" y="306"/>
      <point x="433" y="328" type="curve" smooth="yes"/>
      <point x="477" y="352" type="line" smooth="yes"/>
      <point x="562" y="398"/>
      <point x="594" y="446"/>
      <point x="594" y="522" type="curve" smooth="yes"/>
      <point x="594" y="553" type="line" smooth="yes"/>
      <point x="594" y="647"/>
      <point x="519" y="720"/>
    </contour>
    <contour>
      <point x="900" y="-10" type="curve"/>
      <point x="900" y="169" type="line" smooth="yes"/>
      <point x="900" y="176"/>
      <point x="896" y="180"/>
      <point x="889" y="180" type="curve" smooth="yes"/>
      <point x="826" y="180"/>
      <point x="763" y="180"/>
      <point x="700" y="180" type="curve"/>
      <point x="700" y="1" type="line" smooth="yes"/>
      <point x="700" y="-6"/>
      <point x="704" y="-10"/>
      <point x="711" y="-10" type="curve" smooth="yes"/>
      <point x="774" y="-10"/>
      <point x="837" y="-10"/>
    </contour>
    <contour>
      <point x="792" y="720" type="curve" smooth="yes"/>
      <point x="695" y="720"/>
      <point x="630" y="701"/>
      <point x="599" y="682" type="curve" smooth="yes"/>
      <point x="586" y="674"/>
      <point x="585" y="666"/>
      <point x="585" y="641" type="curve"/>
      <point x="547" y="641" type="line"/>
      <point x="580" y="526" type="line"/>
      <point x="631" y="553"/>
      <point x="697" y="570"/>
      <point x="803" y="570" type="curve" smooth="yes"/>
      <point x="856" y="570"/>
      <point x="879" y="565"/>
      <point x="892" y="556" type="curve"/>
      <point x="901" y="549"/>
      <point x="904" y="539"/>
      <point x="904" y="527" type="curve" smooth="yes"/>
      <point x="904" y="492"/>
      <point x="898" y="484"/>
      <point x="843" y="446" type="curve" smooth="yes"/>
      <point x="820" y="430" type="line" smooth="yes"/>
      <point x="744" y="377"/>
      <point x="722" y="345"/>
      <point x="722" y="289" type="curve" smooth="yes"/>
      <point x="722" y="263" type="line" smooth="yes"/>
      <point x="722" y="254"/>
      <point x="725" y="252"/>
      <point x="733" y="252" type="curve" smooth="yes"/>
      <point x="874" y="252" type="line"/>
      <point x="874" y="258" type="line" smooth="yes"/>
      <point x="874" y="291"/>
      <point x="884" y="303"/>
      <point x="923" y="328" type="curve" smooth="yes"/>
      <point x="954" y="348" type="line" smooth="yes"/>
      <point x="1035" y="401"/>
      <point x="1054" y="446"/>
      <point x="1054" y="522" type="curve" smooth="yes"/>
      <point x="1054" y="553" type="line" smooth="yes"/>
      <point x="1054" y="658"/>
      <point x="985" y="720"/>
    </contour>
  </outline>
</glyph>
<glyph name="x.italic" format="2">
  <advance width="600"/>
  <outline>
    <contour>
      <point x="51" y="540" type="curve"/>
      <point x="51" y="508"/>
      <point x="51" y="458"/>
      <point x="51" y="421" type="curve" smooth="yes"/>
      <point x="51" y="414"/>
      <point x="55" y="410"/>
      <point x="62" y="410" type="curve" smooth="yes"/>
      <point x="78" y="410"/>
      <point x="99" y="410"/>
      <point x="114" y="410" type="curve"/>
      <point x="135" y="410" type="line"/>
      <point x="203" y="285"/>
      <point x="255" y="195"/>
      <point x="318" y="81" type="curve" smooth="yes"/>
      <point x="354" y="16"/>
      <point x="386" y="0"/>
      <point x="441" y="0" type="curve" smooth="yes"/>
      <point x="459" y="0"/>
      <point x="506" y="0"/>
      <point x="524" y="0" type="curve" smooth="yes"/>
      <point x="537" y="0"/>
      <point x="540" y="5"/>
      <point x="540" y="18" type="curve" smooth="yes"/>
      <point x="540" y="30"/>
      <point x="540" y="119"/>
      <point x="540" y="130" type="curve"/>
      <point x="526" y="130" type="line"/>
      <point x="495" y="130"/>
      <point x="503" y="130"/>
      <point x="472" y="130" type="curve" smooth="yes"/>
      <point x="463" y="130"/>
      <point x="452" y="133"/>
      <point x="447" y="143" type="curve" smooth="yes"/>
      <point x="398" y="235"/>
      <point x="299" y="416"/>
      <point x="239" y="528" type="curve" smooth="yes"/>
      <point x="234" y="537"/>
      <point x="227" y="540"/>
      <point x="220" y="540" type="curve" smooth="yes"/>
      <point x="184" y="540"/>
      <point x="88" y="540"/>
    </contour>
    <contour>
      <point x="367" y="540" type="curve"/>
      <point x="358" y="491"/>
      <point x="354" y="431"/>
      <point x="352" y="355" type="curve"/>
      <point x="305" y="355" type="line"/>
      <point x="369" y="237" type="line"/>
      <point x="425" y="326"/>
      <point x="491" y="430"/>
      <point x="548" y="521" type="curve" smooth="yes"/>
      <point x="550" y="524"/>
      <point x="552" y="528"/>
      <point x="552" y="531" type="curve" smooth="yes"/>
      <point x="552" y="536"/>
      <point x="549" y="540"/>
      <point x="542" y="540" type="curve" smooth="yes"/>
      <point x="480" y="540"/>
      <point x="431" y="540"/>
    </contour>
    <contour>
      <point x="227" y="323" type="line"/>
      <point x="167" y="228"/>
      <point x="99" y="109"/>
      <point x="34" y="0" type="curve"/>
      <point x="70" y="0"/>
      <point x="151" y="0"/>
      <point x="209" y="0" type="curve" smooth="yes"/>
      <point x="218" y="0"/>
      <point x="224" y="3"/>
      <point x="226" y="15" type="curve" smooth="yes"/>
      <point x="236" y="73"/>
      <point x="241" y="124"/>
      <point x="244" y="183" type="curve"/>
      <point x="293" y="183" type="line"/>
    </contour>
  </outline>
</glyph>
